<?xml version="1.0" encoding="UTF-8" standalone="no"?>
<svg
   version="1.2"
   x="0"
   y="0"
   width="469"
   height="383"
   viewBox="0 0 469 383"
   id="svg376"
   sodipodi:docname="p1-5.svg"
   inkscape:version="1.1.2 (b8e25be833, 2022-02-05)"
   xmlns:inkscape="http://www.inkscape.org/namespaces/inkscape"
   xmlns:sodipodi="http://sodipodi.sourceforge.net/DTD/sodipodi-0.dtd"
   xmlns="http://www.w3.org/2000/svg"
   xmlns:svg="http://www.w3.org/2000/svg">
  <defs
     id="defs380" />
  <sodipodi:namedview
     id="namedview378"
     pagecolor="#ffffff"
     bordercolor="#666666"
     borderopacity="1.0"
     inkscape:pageshadow="2"
     inkscape:pageopacity="0.0"
     inkscape:pagecheckerboard="0"
     showgrid="false"
     inkscape:zoom="1.5160391"
     inkscape:cx="143.46596"
     inkscape:cy="191.28795"
     inkscape:window-width="2560"
     inkscape:window-height="1417"
     inkscape:window-x="-635"
     inkscape:window-y="-1448"
     inkscape:window-maximized="1"
     inkscape:current-layer="svg376" />
  <style
     type="text/css"
     id="style2"><![CDATA[
text { font:12px Dialog; }
]]></style>
  <clipPath
     id="clip1">
    <path
       d="M 15,15 H 708 V 415 H 15 Z m 11,328 c -4.418282,0 -8,3.58173 -8,8 v 52 c 0,4.41827 3.581718,8 8,8 h 150 c 4.41827,0 8,-3.58173 8,-8 v -52 c 0,-4.41827 -3.58173,-8 -8,-8 z m 219,13 c -2.76143,0 -5,2.23859 -5,5 v 31 c 0,2.76141 2.23857,5 5,5 h 101 c 2.76141,0 5,-2.23859 5,-5 v -31 c 0,-2.76141 -2.23859,-5 -5,-5 z m 290,0 c -2.76141,0 -5,2.23859 -5,5 v 31 c 0,2.76141 2.23859,5 5,5 h 65 c 2.76141,0 5,-2.23859 5,-5 v -31 c 0,-2.76141 -2.23859,-5 -5,-5 z"
       id="path6" />
  </clipPath>
  <path
     d="M 298.67505,376.16578 568,377"
     style="fill:none;stroke:#558ed5"
     clip-path="url(#clip1)"
     id="path9"
     transform="translate(-236.5,-15)"
     sodipodi:nodetypes="cc" />
  <clipPath
     id="clip2">
    <path
       d="M 15,15 H 708 V 415 H 15 Z m 11,328 c -4.418282,0 -8,3.58173 -8,8 v 52 c 0,4.41827 3.581718,8 8,8 h 150 c 4.41827,0 8,-3.58173 8,-8 v -52 c 0,-4.41827 -3.58173,-8 -8,-8 z m 219,13 c -2.76143,0 -5,2.23859 -5,5 v 31 c 0,2.76141 2.23857,5 5,5 h 101 c 2.76141,0 5,-2.23859 5,-5 v -31 c 0,-2.76141 -2.23859,-5 -5,-5 z m 290,0 c -2.76141,0 -5,2.23859 -5,5 v 31 c 0,2.76141 2.23859,5 5,5 h 65 c 2.76141,0 5,-2.23859 5,-5 v -31 c 0,-2.76141 -2.23859,-5 -5,-5 z"
       id="path11" />
  </clipPath>
  <clipPath
     id="clip3">
    <path
       d="M 14,14 H 709 V 416 H 14 Z"
       id="path16" />
  </clipPath>
  <clipPath
     id="clip4">
    <path
       d="m 14,339 h 175 v 77 H 14 Z"
       id="path21" />
  </clipPath>
  <clipPath
     id="clip5">
    <path
       d="m 14,339 h 175 v 77 H 14 Z"
       id="path26" />
  </clipPath>
  <clipPath
     id="clip6">
    <path
       d="m 50,359 h 103 v 37 H 50 Z"
       id="path31" />
  </clipPath>
  <clipPath
     id="clip7">
    <path
       d="M 239,81 H 519 V 399 H 239 Z m 6,275 c -2.76143,0 -5,2.23859 -5,5 v 31 c 0,2.76141 2.23857,5 5,5 h 101 c 2.76141,0 5,-2.23859 5,-5 v -31 c 0,-2.76141 -2.23859,-5 -5,-5 z"
       id="path36" />
  </clipPath>
  <path
     d="M 295.66834,343.00015 V 142 H 306"
     style="fill:none;stroke:#558ed5"
     clip-path="url(#clip7)"
     id="path39"
     transform="translate(-236.5,-15)" />
  <clipPath
     id="clip8">
    <path
       d="M 239,81 H 519 V 399 H 239 Z m 6,275 c -2.76143,0 -5,2.23859 -5,5 v 31 c 0,2.76141 2.23857,5 5,5 h 101 c 2.76141,0 5,-2.23859 5,-5 v -31 c 0,-2.76141 -2.23859,-5 -5,-5 z"
       id="path41" />
  </clipPath>
  <path
     d="M 295.66834,343.00015 V 238 H 306"
     style="fill:none;stroke:#558ed5"
     clip-path="url(#clip8)"
     id="path44"
     transform="translate(-236.5,-15)" />
  <clipPath
     id="clip9">
    <path
       d="M 239,81 H 519 V 399 H 239 Z m 6,275 c -2.76143,0 -5,2.23859 -5,5 v 31 c 0,2.76141 2.23857,5 5,5 h 101 c 2.76141,0 5,-2.23859 5,-5 v -31 c 0,-2.76141 -2.23859,-5 -5,-5 z"
       id="path46" />
  </clipPath>
  <path
     d="M 295.66834,343.00015 V 318 H 306"
     style="fill:none;stroke:#558ed5"
     clip-path="url(#clip9)"
     id="path49"
     transform="translate(-236.5,-15)" />
  <clipPath
     id="clip10">
    <path
       d="M 238,80 H 520 V 400 H 238 Z"
       id="path51" />
  </clipPath>
  <path
     d="m 295.60303,356 0.0653,-12.99985"
     style="fill:none;stroke:#558ed5"
     clip-path="url(#clip10)"
     id="path54"
     transform="translate(-236.5,-15)" />
  <clipPath
     id="clip11">
    <path
       d="m 238,354 h 116 v 46 H 238 Z"
       id="path56" />
  </clipPath>
  <path
     d="m 245,356 c -2.76143,0 -5,2.23859 -5,5 v 31 c 0,2.76141 2.23857,5 5,5 h 101 c 2.76141,0 5,-2.23859 5,-5 v -31 c 0,-2.76141 -2.23859,-5 -5,-5 z"
     style="fill:#dce6f2;stroke:none"
     clip-path="url(#clip11)"
     id="path59"
     transform="translate(-236.5,-15)" />
  <clipPath
     id="clip12">
    <path
       d="m 238,354 h 116 v 46 H 238 Z"
       id="path61" />
  </clipPath>
  <path
     d="m 245,356 c -2.76143,0 -5,2.23859 -5,5 v 31 c 0,2.76141 2.23857,5 5,5 h 101 c 2.76141,0 5,-2.23859 5,-5 v -31 c 0,-2.76141 -2.23859,-5 -5,-5 z"
     style="fill:none;stroke:#558ed5;stroke-width:2"
     clip-path="url(#clip12)"
     id="path64"
     transform="translate(-236.5,-15)" />
  <clipPath
     id="clip13">
    <path
       d="m 252,363 h 88 v 28 h -88 z"
       id="path66" />
  </clipPath>
  <path
     d="m 261.56226,383.27124 c -0.70279,0.42056 -1.54947,0.63086 -2.54004,0.63086 -1.32813,0 -2.39615,-0.42612 -3.20409,-1.27832 -0.80795,-0.8522 -1.21191,-1.95621 -1.21191,-3.31201 0,-1.50522 0.43579,-2.71851 1.30737,-3.6399 0.87157,-0.92138 2.03783,-1.38208 3.49876,-1.38208 0.84116,0 1.56055,0.14942 2.15821,0.44825 v 1.61035 c -0.64746,-0.47592 -1.36686,-0.71387 -2.15821,-0.71387 -0.92968,0 -1.68643,0.32236 -2.27026,0.96704 -0.5838,0.64469 -0.87573,1.50382 -0.87573,2.5774 0,1.05697 0.27533,1.88427 0.82593,2.48193 0.55062,0.59765 1.29354,0.89648 2.22875,0.89648 0.79136,0 1.53843,-0.2601 2.24122,-0.78027 z m 1.82617,-4.07568 c 0,-1.51627 0.42334,-2.71299 1.27002,-3.59009 0.84668,-0.87711 1.99496,-1.31568 3.44482,-1.31568 1.37793,0 2.45844,0.42197 3.24146,1.26587 0.78305,0.84391 1.17456,2.01017 1.17456,3.49878 0,1.44986 -0.41779,2.62027 -1.25342,3.51123 -0.8356,0.89096 -1.95621,1.33643 -3.36182,1.33643 -1.37237,0 -2.46808,-0.43164 -3.28711,-1.29492 -0.819,-0.86328 -1.22851,-2.00049 -1.22851,-3.41162 z m 1.66015,-0.0498 c 0,1.05698 0.26703,1.8898 0.80103,2.49854 0.53403,0.60873 1.25204,0.91308 2.15405,0.91308 0.92969,0 1.63803,-0.29745 2.125,-0.89233 0.487,-0.59488 0.73047,-1.44849 0.73047,-2.56079 0,-1.11783 -0.24347,-1.97559 -0.73047,-2.57324 -0.48697,-0.59766 -1.19531,-0.89649 -2.125,-0.89649 -0.91308,0 -1.63385,0.31265 -2.16235,0.93799 -0.52847,0.62534 -0.79273,1.48306 -0.79273,2.57324 z m 23.3003,4.54053 h -1.62696 v -5.271 c 0,-0.99609 -0.15493,-1.70858 -0.46484,-2.13745 -0.30988,-0.42886 -0.819,-0.64331 -1.52734,-0.64331 -0.59766,0 -1.10953,0.27945 -1.53565,0.83838 -0.42608,0.55893 -0.63916,1.22022 -0.63916,1.98389 v 5.22949 h -1.62695 v -5.43701 c 0,-1.74317 -0.67236,-2.61475 -2.01709,-2.61475 -0.61978,0 -1.13306,0.26563 -1.5398,0.79688 -0.40673,0.53125 -0.6101,1.20913 -0.6101,2.03369 v 5.22119 h -1.62696 v -9.18066 h 1.62696 v 1.45263 h 0.0332 c 0.65301,-1.1123 1.6076,-1.66846 2.86377,-1.66846 0.61426,0 1.15658,0.1688 1.62695,0.50635 0.4704,0.33756 0.79688,0.7941 0.97949,1.36963 0.68067,-1.25064 1.69892,-1.87598 3.05469,-1.87598 2.01987,0 3.02979,1.24512 3.02979,3.73536 z m 16.41064,0 h -1.62695 v -5.271 c 0,-0.99609 -0.15494,-1.70858 -0.46485,-2.13745 -0.30987,-0.42886 -0.819,-0.64331 -1.52734,-0.64331 -0.59766,0 -1.10953,0.27945 -1.53564,0.83838 -0.42609,0.55893 -0.63916,1.22022 -0.63916,1.98389 v 5.22949 h -1.62696 v -5.43701 c 0,-1.74317 -0.67236,-2.61475 -2.01709,-2.61475 -0.61978,0 -1.13305,0.26563 -1.53979,0.79688 -0.40674,0.53125 -0.61011,1.20913 -0.61011,2.03369 v 5.22119 h -1.62695 v -9.18066 h 1.62695 v 1.45263 h 0.0332 c 0.65302,-1.1123 1.60761,-1.66846 2.86377,-1.66846 0.61426,0 1.15659,0.1688 1.62696,0.50635 0.47039,0.33756 0.79687,0.7941 0.97949,1.36963 0.68066,-1.25064 1.69891,-1.87598 3.05469,-1.87598 2.01986,0 3.02978,1.24512 3.02978,3.73536 z m 3.41162,-8.5415 c 0.91309,-0.56998 1.96729,-0.85499 3.1626,-0.85499 2.21356,0 3.32031,1.16211 3.32031,3.48633 v 5.91016 h -1.61035 v -1.41943 h -0.0415 c -0.63639,1.09018 -1.57437,1.63525 -2.81397,1.63525 -0.89093,0 -1.59927,-0.24072 -2.125,-0.72217 -0.52569,-0.48144 -0.78857,-1.13168 -0.78857,-1.95068 0,-1.71549 1.01547,-2.71436 3.04638,-2.99658 l 2.72266,-0.38184 c 0,-1.49966 -0.61978,-2.24951 -1.85937,-2.24951 -1.10123,0 -2.10563,0.37076 -3.01319,1.1123 z m 2.72266,4.22509 c -0.7526,0.0996 -1.27139,0.28775 -1.5564,0.56446 -0.28497,0.2767 -0.42749,0.66406 -0.42749,1.16211 0,0.43716 0.15497,0.79409 0.46485,1.0708 0.3099,0.2767 0.71942,0.41504 1.22851,0.41504 0.70835,0 1.29218,-0.24903 1.75147,-0.74707 0.45932,-0.49805 0.68896,-1.12339 0.68896,-1.87598 v -0.87988 z m 14.50146,4.31641 h -1.61865 v -5.22119 c 0,-1.88706 -0.68896,-2.83057 -2.06689,-2.83057 -0.71387,0 -1.30045,0.26563 -1.75977,0.79688 -0.45929,0.53125 -0.68896,1.20361 -0.68896,2.01709 v 5.23779 h -1.62696 v -9.18066 h 1.62696 v 1.51904 h 0.0332 c 0.69174,-1.15659 1.69614,-1.73487 3.01318,-1.73487 1.00717,0 1.77362,0.32236 2.29932,0.96705 0.52573,0.64468 0.78857,1.58407 0.78857,2.81811 z m 10.99854,0 h -1.62695 v -1.52734 h -0.0332 c -0.66958,1.1621 -1.70996,1.74316 -3.12109,1.74316 -1.16211,0 -2.08624,-0.41367 -2.77246,-1.24097 -0.68619,-0.8273 -1.0293,-1.94375 -1.0293,-3.34936 0,-1.51627 0.38739,-2.73233 1.16211,-3.6482 0.77475,-0.91586 1.78745,-1.37378 3.03809,-1.37378 1.25067,0 2.1582,0.48697 2.72265,1.46094 h 0.0332 v -5.65283 h 1.62695 z m -1.61865,-5.46191 c 0,-0.736 -0.2421,-1.35166 -0.72632,-1.84693 -0.48419,-0.49527 -1.08048,-0.74292 -1.78882,-0.74292 -0.86328,0 -1.54395,0.32236 -2.04199,0.96704 -0.49805,0.64469 -0.74707,1.5232 -0.74707,2.6355 0,1.02377 0.23935,1.8331 0.71801,2.42798 0.4787,0.59488 1.11646,0.89233 1.91333,0.89233 0.78583,0 1.42774,-0.2919 1.92579,-0.87573 0.49804,-0.58383 0.74707,-1.31015 0.74707,-2.17895 z"
     style="fill:#17375e;stroke:none"
     clip-path="url(#clip13)"
     id="path69"
     transform="translate(-236.5,-15)" />
  <clipPath
     id="clip14">
    <path
       d="m 290,343 h 13 v 13 h -13 z"
       id="path71" />
  </clipPath>
  <path
     d="m 300.5,349 c 0,-2.48529 -2.01471,-4.5 -4.5,-4.5 -2.48529,0 -4.5,2.01471 -4.5,4.5 0,2.48529 2.01471,4.5 4.5,4.5 2.48529,0 4.5,-2.01474 4.5,-4.5 z"
     style="fill:#fafafa;stroke:none"
     clip-path="url(#clip14)"
     id="path74"
     transform="translate(-236.5,-15)" />
  <clipPath
     id="clip15">
    <path
       d="m 290,343 h 13 v 13 h -13 z"
       id="path76" />
  </clipPath>
  <path
     d="m 300.5,349 c 0,-2.48529 -2.01471,-4.5 -4.5,-4.5 -2.48529,0 -4.5,2.01471 -4.5,4.5 0,2.48529 2.01471,4.5 4.5,4.5 2.48529,0 4.5,-2.01474 4.5,-4.5 z"
     style="fill:none;stroke:#558ed5"
     clip-path="url(#clip15)"
     id="path79"
     transform="translate(-236.5,-15)" />
  <clipPath
     id="clip16">
    <path
       d="m 290,343 h 13 v 13 h -13 z"
       id="path81" />
  </clipPath>
  <path
     d="m 294,349 h 4"
     style="fill:none;stroke:#96a0c8"
     clip-path="url(#clip16)"
     id="path84"
     transform="translate(-236.5,-15)" />
  <clipPath
     id="clip17">
    <path
       d="m 304,81 h 184 v 95 H 304 Z m 2,34 v 26 h 73 v -26 z"
       id="path86" />
  </clipPath>
  <path
     d="m 392,142 v -32 h 11"
     style="fill:none;stroke:#558ed5"
     clip-path="url(#clip17)"
     id="path89"
     transform="translate(-236.5,-15)" />
  <clipPath
     id="clip18">
    <path
       d="m 304,81 h 184 v 95 H 304 Z m 2,34 v 26 h 73 v -26 z"
       id="path91" />
  </clipPath>
  <path
     d="m 392,142 v 0 h 11"
     style="fill:none;stroke:#558ed5"
     clip-path="url(#clip18)"
     id="path94"
     transform="translate(-236.5,-15)" />
  <clipPath
     id="clip19">
    <path
       d="m 304,81 h 184 v 95 H 304 Z m 2,34 v 26 h 73 v -26 z"
       id="path96" />
  </clipPath>
  <path
     d="m 392,142 v 32 h 11"
     style="fill:none;stroke:#558ed5"
     clip-path="url(#clip19)"
     id="path99"
     transform="translate(-236.5,-15)" />
  <clipPath
     id="clip20">
    <path
       d="m 303,80 h 186 v 97 H 303 Z"
       id="path101" />
  </clipPath>
  <path
     d="m 379,142 h 13"
     style="fill:none;stroke:#558ed5"
     clip-path="url(#clip20)"
     id="path104"
     transform="translate(-236.5,-15)" />
  <clipPath
     id="clip21">
    <path
       d="m 303,112 h 80 v 33 h -80 z"
       id="path106" />
  </clipPath>
  <path
     d="m 306,142 h 73 z"
     style="fill:none;stroke:#558ed5;stroke-width:3"
     clip-path="url(#clip21)"
     id="path109"
     transform="translate(-236.5,-15)" />
  <clipPath
     id="clip22">
    <path
       d="m 315,117 h 56 v 23 h -56 z"
       id="path111" />
  </clipPath>
  <path
     d="m 324.50122,126.59253 -2.78027,7.02051 h -1.25684 l -2.64062,-7.02051 h 1.35839 l 1.71387,5.01465 c 0.13965,0.40201 0.22217,0.73843 0.24756,1.00928 h 0.0317 c 0.0423,-0.35547 0.11636,-0.68345 0.22217,-0.98389 l 1.79638,-5.04004 z m 1.53613,0.48877 c 0.69825,-0.43588 1.5044,-0.65381 2.41846,-0.65381 1.69269,0 2.53906,0.88867 2.53906,2.66602 v 4.51953 h -1.23144 v -1.08545 h -0.0317 c -0.48666,0.83365 -1.20395,1.25049 -2.15186,1.25049 -0.68133,0 -1.22299,-0.1841 -1.625,-0.55225 -0.40203,-0.36816 -0.60302,-0.8654 -0.60302,-1.4917 0,-1.31186 0.77652,-2.07568 2.32959,-2.2915 l 2.08203,-0.292 c 0,-1.14682 -0.47397,-1.72021 -1.42188,-1.72021 -0.84213,0 -1.6102,0.28352 -2.3042,0.85059 z m 2.08203,3.23096 c -0.57553,0.0762 -0.97225,0.22004 -1.19018,0.43164 -0.21796,0.21157 -0.32691,0.50781 -0.32691,0.88867 0,0.3343 0.11847,0.60725 0.35547,0.81885 0.23697,0.21157 0.55011,0.31738 0.93946,0.31738 0.54165,0 0.98809,-0.19043 1.33935,-0.57129 0.35123,-0.38086 0.52686,-0.85905 0.52686,-1.43457 v -0.67285 z m 8.91846,-2.48829 c -0.20737,-0.14811 -0.49301,-0.22216 -0.85693,-0.22216 -0.48242,0 -0.88022,0.22534 -1.19336,0.67602 -0.31317,0.45069 -0.46973,1.04419 -0.46973,1.78052 v 3.55469 h -1.24414 v -7.02051 h 1.24414 v 1.42822 h 0.0254 c 0.35547,-1.03256 0.96906,-1.54883 1.84082,-1.54883 0.28351,0 0.50147,0.0317 0.65381,0.0952 z m 1.19336,-3.70703 c 0,-0.22006 0.0751,-0.40519 0.22534,-0.55542 0.15021,-0.15023 0.33536,-0.22534 0.55542,-0.22534 0.22428,0 0.41364,0.074 0.56812,0.22217 0.15445,0.1481 0.23169,0.3343 0.23169,0.55859 0,0.22005 -0.0772,0.40308 -0.23169,0.54908 -0.15448,0.14599 -0.34384,0.21899 -0.56812,0.21899 -0.2243,0 -0.41049,-0.073 -0.55859,-0.21899 -0.14813,-0.146 -0.22217,-0.32903 -0.22217,-0.54908 z m 0.146,9.4961 v -7.02051 h 1.24414 v 7.02051 z m 3.73242,-6.53174 c 0.69824,-0.43588 1.50439,-0.65381 2.41846,-0.65381 1.69268,0 2.53906,0.88867 2.53906,2.66602 v 4.51953 h -1.23145 v -1.08545 h -0.0317 c -0.48667,0.83365 -1.20395,1.25049 -2.15186,1.25049 -0.68134,0 -1.22299,-0.1841 -1.625,-0.55225 -0.40204,-0.36816 -0.60303,-0.8654 -0.60303,-1.4917 0,-1.31186 0.77652,-2.07568 2.32959,-2.2915 l 2.08203,-0.292 c 0,-1.14682 -0.47397,-1.72021 -1.42187,-1.72021 -0.84213,0 -1.6102,0.28352 -2.3042,0.85059 z m 2.08203,3.23096 c -0.57553,0.0762 -0.97226,0.22004 -1.19019,0.43164 -0.21795,0.21157 -0.3269,0.50781 -0.3269,0.88867 0,0.3343 0.11847,0.60725 0.35547,0.81885 0.23697,0.21157 0.55011,0.31738 0.93945,0.31738 0.54166,0 0.9881,-0.19043 1.33936,-0.57129 0.35122,-0.38086 0.52685,-0.85905 0.52685,-1.43457 v -0.67285 z m 6.39844,2.31054 v 0.99024 h -1.24414 v -10.39112 h 1.24414 v 4.58301 h 0.0254 c 0.55011,-0.9183 1.35415,-1.37744 2.41211,-1.37744 0.88019,0 1.5795,0.30997 2.0979,0.92993 0.51837,0.61995 0.77759,1.46736 0.77759,2.54224 0,1.18489 -0.29096,2.12752 -0.87281,2.82788 -0.58188,0.70035 -1.35736,1.05054 -2.32641,1.05054 -0.91407,0 -1.6102,-0.38511 -2.08838,-1.15528 z m -0.006,-1.89795 c 0,0.56705 0.18408,1.0463 0.55225,1.43775 0.36816,0.39143 0.8294,0.58716 1.38379,0.58716 0.66015,0 1.17642,-0.25391 1.54882,-0.76172 0.37238,-0.50782 0.5586,-1.2103 0.5586,-2.10742 0,-0.74057 -0.17353,-1.32984 -0.52051,-1.76783 -0.34702,-0.43799 -0.82098,-0.65698 -1.42188,-0.65698 -0.60937,0 -1.1119,0.21793 -1.50756,0.65381 -0.39569,0.43587 -0.59351,0.99023 -0.59351,1.66309 z m 7.30615,2.88819 v -10.39112 h 1.24414 v 10.39112 z m 9.28662,-3.19287 h -4.91308 c 0.0211,0.74902 0.22638,1.32771 0.61572,1.73608 0.38931,0.40836 0.93311,0.61255 1.63135,0.61255 0.78711,0 1.5086,-0.2518 2.16455,-0.75537 v 1.11084 c -0.61786,0.43586 -1.43671,0.65381 -2.45654,0.65381 -1.01563,0 -1.80805,-0.32163 -2.3772,-0.96485 -0.56918,-0.64323 -0.85376,-1.53613 -0.85376,-2.67871 0,-1.07487 0.31207,-1.96142 0.93628,-2.65967 0.62417,-0.69824 1.39963,-1.04736 2.32641,-1.04736 0.91828,0 1.63556,0.29517 2.15186,0.8855 0.51627,0.59033 0.77441,1.41658 0.77441,2.47876 z m -1.24414,-0.99659 c -0.004,-0.63476 -0.15448,-1.12565 -0.45068,-1.47265 -0.29623,-0.34702 -0.71307,-0.52051 -1.25049,-0.52051 -0.49512,0 -0.92361,0.18408 -1.2854,0.55225 -0.36182,0.36816 -0.58929,0.84846 -0.68237,1.44091 z"
     style="fill:#000000;stroke:none"
     clip-path="url(#clip22)"
     id="path114"
     transform="translate(-236.5,-15)" />
  <clipPath
     id="clip23">
    <path
       d="m 381,122 h 13 v 13 h -13 z"
       id="path116" />
  </clipPath>
  <path
     d="m 391.49997,127.99998 c 0,-2.48527 -2.01471,-4.5 -4.5,-4.5 -2.48526,2e-5 -4.5,2.01473 -4.49997,4.50002 0,2.48528 2.01471,4.5 4.5,4.49998 2.48526,0 4.5,-2.01472 4.49997,-4.5 z"
     style="fill:#fafafa;stroke:none"
     clip-path="url(#clip23)"
     id="path119"
     transform="translate(-236.5,-15)" />
  <clipPath
     id="clip24">
    <path
       d="m 381,122 h 13 v 13 h -13 z"
       id="path121" />
  </clipPath>
  <path
     d="m 391.49997,127.99998 c 0,-2.48527 -2.01471,-4.5 -4.5,-4.5 -2.48526,2e-5 -4.5,2.01473 -4.49997,4.50002 0,2.48528 2.01471,4.5 4.5,4.49998 2.48526,0 4.5,-2.01472 4.49997,-4.5 z"
     style="fill:none;stroke:#558ed5"
     clip-path="url(#clip24)"
     id="path124"
     transform="translate(-236.5,-15)" />
  <clipPath
     id="clip25">
    <path
       d="m 381,122 h 13 v 13 h -13 z"
       id="path126" />
  </clipPath>
  <path
     d="m 385,128 h 4"
     style="fill:none;stroke:#96a0c8"
     clip-path="url(#clip25)"
     id="path129"
     transform="translate(-236.5,-15)" />
  <clipPath
     id="clip26">
    <path
       d="m 400,80 h 89 v 33 h -89 z"
       id="path131" />
  </clipPath>
  <path
     d="m 403,110 h 82 z"
     style="fill:none;stroke:#558ed5;stroke-width:3"
     clip-path="url(#clip26)"
     id="path134"
     transform="translate(-236.5,-15)" />
  <clipPath
     id="clip27">
    <path
       d="m 412,85 h 65 v 23 h -65 z"
       id="path136" />
  </clipPath>
  <path
     d="m 420.11377,101.29565 c -0.53745,0.3216 -1.18491,0.48243 -1.94238,0.48243 -1.01566,0 -1.83237,-0.32587 -2.4502,-0.97754 -0.61786,-0.65171 -0.92676,-1.495944 -0.92676,-2.532718 0,-1.151062 0.33326,-2.078857 0.99976,-2.783447 0.6665,-0.70459 1.55835,-1.056885 2.67554,-1.056885 0.64322,0 1.19336,0.114258 1.65039,0.342774 v 1.231445 c -0.49512,-0.363953 -1.04526,-0.545899 -1.65039,-0.545899 -0.71094,0 -1.28965,0.246491 -1.73609,0.739502 -0.44647,0.492981 -0.66968,1.149964 -0.66968,1.970948 0,0.808258 0.21052,1.440918 0.6316,1.89795 0.42105,0.45703 0.98916,0.68555 1.70434,0.68555 0.60514,0 1.17642,-0.19892 1.71387,-0.59668 z m 7.79492,0.31739 h -1.23779 v -4.037112 c 0,-1.413422 -0.52475,-2.120118 -1.57422,-2.120118 -0.53745,0 -0.98389,0.206299 -1.33936,0.618897 -0.35546,0.412598 -0.5332,0.932037 -0.5332,1.55835 v 3.979983 h -1.24414 V 91.221924 h 1.24414 v 4.525879 h 0.0254 c 0.53742,-0.880219 1.30127,-1.320313 2.29151,-1.320313 1.57843,0 2.36767,0.954254 2.36767,2.862793 z m 2.48193,-6.531741 c 0.69825,-0.435883 1.5044,-0.653809 2.41846,-0.653809 1.69269,0 2.53906,0.888672 2.53906,2.666016 v 4.519534 h -1.23144 v -1.08545 h -0.0317 c -0.48666,0.83365 -1.20395,1.25049 -2.15185,1.25049 -0.68134,0 -1.223,-0.18412 -1.625,-0.55225 -0.40204,-0.36816 -0.60303,-0.86542 -0.60303,-1.491699 0,-1.311859 0.77652,-2.075684 2.32959,-2.291504 l 2.08203,-0.291992 c 0,-1.14682 -0.47397,-1.720215 -1.42188,-1.720215 -0.84213,0 -1.61019,0.283508 -2.3042,0.850586 z m 2.08204,3.230957 c -0.57553,0.07617 -0.97226,0.220032 -1.19019,0.431641 -0.21796,0.211578 -0.3269,0.507812 -0.3269,0.888671 0,0.33429 0.11847,0.607242 0.35547,0.818852 0.23696,0.21157 0.55011,0.31738 0.93945,0.31738 0.54165,0 0.9881,-0.19043 1.33935,-0.57129 0.35123,-0.38086 0.52686,-0.85907 0.52686,-1.43457 v -0.672852 z m 8.91845,-2.488281 c -0.20736,-0.148133 -0.49301,-0.222168 -0.85693,-0.222168 -0.48242,0 -0.88022,0.225341 -1.19336,0.676025 -0.31317,0.450684 -0.46973,1.04419 -0.46973,1.780518 v 3.55469 h -1.24414 v -7.020511 h 1.24414 v 1.428223 h 0.0254 c 0.35544,-1.032562 0.96906,-1.548828 1.84082,-1.548828 0.28351,0 0.50147,0.03174 0.65381,0.09521 z m 1.51075,-0.742676 c 0.69824,-0.435883 1.50439,-0.653809 2.41845,-0.653809 1.69269,0 2.53906,0.888672 2.53906,2.666016 v 4.519534 h -1.23144 v -1.08545 h -0.0317 c -0.48666,0.83365 -1.20395,1.25049 -2.15185,1.25049 -0.68134,0 -1.223,-0.18412 -1.625,-0.55225 -0.40204,-0.36816 -0.60303,-0.86542 -0.60303,-1.491699 0,-1.311859 0.77652,-2.075684 2.32959,-2.291504 l 2.08203,-0.291992 c 0,-1.14682 -0.47397,-1.720215 -1.42188,-1.720215 -0.84213,0 -1.61019,0.283508 -2.30419,0.850586 z m 2.08203,3.230957 c -0.57553,0.07617 -0.97226,0.220032 -1.19019,0.431641 -0.21796,0.211578 -0.3269,0.507812 -0.3269,0.888671 0,0.33429 0.11847,0.607242 0.35547,0.818852 0.23696,0.21157 0.55011,0.31738 0.93945,0.31738 0.54166,0 0.9881,-0.19043 1.33935,-0.57129 0.35123,-0.38086 0.52686,-0.85907 0.52686,-1.43457 v -0.672852 z m 10.0039,2.983394 c -0.53744,0.3216 -1.1849,0.48243 -1.94238,0.48243 -1.01566,0 -1.83237,-0.32587 -2.4502,-0.97754 -0.61785,-0.65171 -0.92675,-1.495944 -0.92675,-2.532718 0,-1.151062 0.33325,-2.078857 0.99975,-2.783447 0.66651,-0.70459 1.55835,-1.056885 2.67554,-1.056885 0.64322,0 1.19336,0.114258 1.65039,0.342774 v 1.231445 c -0.49512,-0.363953 -1.04526,-0.545899 -1.65039,-0.545899 -0.71094,0 -1.28964,0.246491 -1.73608,0.739502 -0.44648,0.492981 -0.66968,1.149964 -0.66968,1.970948 0,0.808258 0.21051,1.440918 0.63159,1.89795 0.42105,0.45703 0.98917,0.68555 1.70435,0.68555 0.60513,0 1.17642,-0.19892 1.71386,-0.59668 z m 5.23682,0.24756 c -0.27084,0.1481 -0.6369,0.22217 -1.09815,0.22217 -1.25683,0 -1.88525,-0.69614 -1.88525,-2.088378 V 95.62085 h -1.20605 v -1.028321 h 1.20605 v -1.688476 l 1.23779,-0.393555 v 2.082031 h 1.74561 V 95.62085 H 458.479 v 3.833984 c 0,0.461243 0.0783,0.791316 0.23487,0.990236 0.15655,0.19888 0.41681,0.29834 0.78076,0.29834 0.2793,0 0.52261,-0.0783 0.72998,-0.23487 z m 7.33789,-3.123044 h -4.91309 c 0.0212,0.749024 0.22638,1.327698 0.61573,1.736084 0.38931,0.40836 0.9331,0.61255 1.63134,0.61255 0.78711,0 1.50861,-0.2518 2.16456,-0.75537 v 1.11084 c -0.61786,0.43585 -1.43671,0.65381 -2.45655,0.65381 -1.01562,0 -1.80804,-0.32163 -2.3772,-0.96485 -0.56918,-0.64325 -0.85375,-1.53613 -0.85375,-2.678708 0,-1.074891 0.31207,-1.961426 0.93627,-2.659669 0.62418,-0.698242 1.39963,-1.047363 2.32642,-1.047363 0.91827,0 1.63556,0.295166 2.15186,0.885498 0.51626,0.590332 0.77441,1.416565 0.77441,2.47876 z m -1.24414,-0.996582 c -0.004,-0.634766 -0.15448,-1.125671 -0.45068,-1.472656 -0.29624,-0.347016 -0.71308,-0.520508 -1.25049,-0.520508 -0.49512,0 -0.92362,0.184082 -1.2854,0.552246 -0.36182,0.368164 -0.5893,0.84845 -0.68238,1.440918 z m 6.88721,-1.599609 c -0.20737,-0.148133 -0.49302,-0.222168 -0.85694,-0.222168 -0.48242,0 -0.88022,0.225341 -1.19336,0.676025 -0.31317,0.450684 -0.46972,1.04419 -0.46972,1.780518 v 3.55469 h -1.24414 v -7.020511 h 1.24414 v 1.428223 h 0.0254 c 0.35544,-1.032562 0.96905,-1.548828 1.84082,-1.548828 0.28351,0 0.50146,0.03174 0.65381,0.09521 z"
     style="fill:#000000;stroke:none"
     clip-path="url(#clip27)"
     id="path139"
     transform="translate(-236.5,-15)" />
  <clipPath
     id="clip28">
    <path
       d="m 400,112 h 81 v 33 h -81 z"
       id="path141" />
  </clipPath>
  <path
     d="m 403,142 h 74 z"
     style="fill:none;stroke:#558ed5;stroke-width:3"
     clip-path="url(#clip28)"
     id="path144"
     transform="translate(-236.5,-15)" />
  <clipPath
     id="clip29">
    <path
       d="m 412,117 h 57 v 23 h -57 z"
       id="path146" />
  </clipPath>
  <path
     d="m 420.84595,133.55591 h -1.2378 v -3.99268 c -3e-5,-1.44304 -0.52688,-2.16455 -1.58056,-2.16455 -0.5459,0 -0.99448,0.20313 -1.34571,0.60938 -0.35125,0.40625 -0.52685,0.92041 -0.52685,1.54248 v 4.00537 h -1.24414 v -7.02051 h 1.24414 v 1.16162 h 0.0254 c 0.52896,-0.88444 1.29703,-1.32666 2.3042,-1.32666 0.77017,0 1.35626,0.24649 1.7583,0.7395 0.40201,0.493 0.60303,1.21134 0.60303,2.15503 z m 8.1123,0 h -1.25049 v -1.10449 h -0.0254 c -0.46972,0.84634 -1.19125,1.26953 -2.16455,1.26953 -1.66308,0 -2.49463,-0.99448 -2.49463,-2.9834 v -4.20215 h 1.23145 v 4.01807 c 0,1.4261 0.5459,2.13916 1.63769,2.13916 0.54166,0 0.97965,-0.19995 1.31397,-0.59986 0.33429,-0.3999 0.50143,-0.90454 0.50146,-1.51391 v -4.04346 h 1.25049 z m 12.56201,0 h -1.24414 v -4.03076 c 0,-0.76172 -0.1185,-1.30657 -0.35547,-1.63452 -0.237,-0.32798 -0.62631,-0.49195 -1.16796,-0.49195 -0.45704,0 -0.84848,0.2137 -1.17432,0.64111 -0.32587,0.4274 -0.48877,0.93311 -0.48877,1.51709 v 3.99903 h -1.24414 v -4.15772 c -3e-5,-1.333 -0.51419,-1.99951 -1.54248,-1.99951 -0.47397,0 -0.86646,0.20313 -1.17749,0.60938 -0.31104,0.40625 -0.46655,0.92463 -0.46655,1.55517 v 3.99268 h -1.24415 v -7.02051 h 1.24415 v 1.11084 h 0.0254 c 0.49932,-0.85059 1.22931,-1.27588 2.18994,-1.27588 0.46969,0 0.88443,0.12906 1.24414,0.38721 0.35968,0.25813 0.60937,0.60725 0.74902,1.04736 0.52051,-0.95639 1.29913,-1.43457 2.33594,-1.43457 1.54459,0 2.31686,0.95215 2.31689,2.85645 z m 8.16309,-3.19287 h -4.91309 c 0.0211,0.74902 0.22638,1.32771 0.61573,1.73608 0.38931,0.40836 0.9331,0.61255 1.63134,0.61255 0.78711,0 1.50861,-0.2518 2.16455,-0.75537 v 1.11084 c -0.61785,0.43587 -1.4367,0.65381 -2.45654,0.65381 -1.01562,0 -1.80804,-0.32163 -2.3772,-0.96485 -0.56918,-0.64323 -0.85376,-1.53613 -0.85376,-2.67871 0,-1.07487 0.31208,-1.96142 0.93628,-2.65967 0.62418,-0.69824 1.39963,-1.04736 2.32642,-1.04736 0.91827,0 1.63556,0.29517 2.15186,0.8855 0.51626,0.59033 0.77441,1.41658 0.77441,2.47876 z m -1.24414,-0.99658 c -0.004,-0.63477 -0.15448,-1.12566 -0.45068,-1.47266 -0.29624,-0.34702 -0.71308,-0.52051 -1.25049,-0.52051 -0.49512,0 -0.92362,0.18408 -1.2854,0.55225 -0.36182,0.36816 -0.5893,0.84846 -0.68238,1.44092 z m 6.88721,-1.59961 c -0.20737,-0.14812 -0.49302,-0.22217 -0.85694,-0.22217 -0.48242,0 -0.88022,0.22534 -1.19336,0.67602 -0.31317,0.45069 -0.46972,1.04419 -0.46972,1.78052 v 3.55469 h -1.24414 v -7.02051 h 1.24414 v 1.42822 h 0.0254 c 0.35544,-1.03256 0.96905,-1.54883 1.84082,-1.54883 0.28351,0 0.50146,0.0317 0.65381,0.0952 z m 1.19336,-3.70704 c 0,-0.22006 0.0751,-0.40519 0.22534,-0.55542 0.1502,-0.15023 0.33535,-0.22534 0.55542,-0.22534 0.22427,0 0.41363,0.074 0.56811,0.22217 0.15445,0.1481 0.23169,0.33431 0.23169,0.55859 0,0.22005 -0.0772,0.40308 -0.23169,0.54908 -0.15448,0.14599 -0.34384,0.21899 -0.56811,0.21899 -0.22431,0 -0.41049,-0.073 -0.5586,-0.21899 -0.14813,-0.146 -0.22216,-0.32903 -0.22216,-0.54908 z m 0.14599,9.4961 v -7.02051 h 1.24414 v 7.02051 z m 8.41699,-0.31738 c -0.53744,0.3216 -1.1849,0.48242 -1.94238,0.48242 -1.01565,0 -1.83237,-0.32585 -2.45019,-0.97754 -0.61786,-0.6517 -0.92676,-1.49594 -0.92676,-2.53272 0,-1.15104 0.33325,-2.07885 0.99975,-2.78344 0.66651,-0.70459 1.55835,-1.05689 2.67554,-1.05689 0.64322,0 1.19336,0.11426 1.65039,0.34277 v 1.23145 c -0.49512,-0.36394 -1.04526,-0.5459 -1.65039,-0.5459 -0.71094,0 -1.28964,0.24649 -1.73608,0.7395 -0.44648,0.493 -0.66968,1.14998 -0.66968,1.97095 0,0.80826 0.21051,1.44092 0.63159,1.89795 0.42105,0.45703 0.98917,0.68555 1.70435,0.68555 0.60513,0 1.17642,-0.1989 1.71386,-0.59668 z"
     style="fill:#000000;stroke:none"
     clip-path="url(#clip29)"
     id="path149"
     transform="translate(-236.5,-15)" />
  <clipPath
     id="clip30">
    <path
       d="m 400,144 h 81 v 33 h -81 z"
       id="path151" />
  </clipPath>
  <path
     d="m 403,174 h 74 z"
     style="fill:none;stroke:#558ed5;stroke-width:3"
     clip-path="url(#clip30)"
     id="path154"
     transform="translate(-236.5,-15)" />
  <clipPath
     id="clip31">
    <path
       d="m 412,149 h 57 v 23 h -57 z"
       id="path156" />
  </clipPath>
  <path
     d="m 416.20898,164.6228 v 0.99024 h -1.24414 v -10.39112 h 1.24414 v 4.58301 h 0.0254 c 0.55011,-0.9183 1.35416,-1.37744 2.41211,-1.37744 0.88019,0 1.5795,0.30997 2.0979,0.92993 0.51838,0.61995 0.77759,1.46736 0.77759,2.54224 0,1.18489 -0.29095,2.12752 -0.8728,2.82788 -0.58188,0.70035 -1.35736,1.05054 -2.32642,1.05054 -0.91406,0 -1.6102,-0.38511 -2.08838,-1.15528 z m -0.006,-1.89795 c 0,0.56705 0.18408,1.0463 0.55224,1.43775 0.36817,0.39143 0.82941,0.58716 1.38379,0.58716 0.66013,0 1.17642,-0.25391 1.54883,-0.76172 0.37238,-0.50782 0.55859,-1.2103 0.55859,-2.10742 0,-0.74057 -0.17352,-1.32984 -0.5205,-1.76783 -0.34702,-0.43799 -0.82099,-0.65698 -1.42188,-0.65698 -0.60937,0 -1.11191,0.21793 -1.50757,0.65381 -0.39569,0.43587 -0.5935,0.99023 -0.5935,1.66309 z m 6.84277,-0.54589 c 0,-1.15952 0.32373,-2.07464 0.97119,-2.74537 0.64746,-0.67074 1.52554,-1.0061 2.63428,-1.0061 1.05368,0 1.87994,0.32266 2.47876,0.96802 0.59878,0.64534 0.89819,1.53718 0.89819,2.67553 0,1.10872 -0.31952,2.00374 -0.95849,2.68506 -0.63901,0.68131 -1.49595,1.02198 -2.5708,1.02198 -1.0495,0 -1.88739,-0.3301 -2.51368,-0.99024 -0.62631,-0.66015 -0.93945,-1.52978 -0.93945,-2.60888 z m 1.26953,-0.0381 c 0,0.80826 0.20416,1.44514 0.61255,1.91064 0.40836,0.46549 0.95743,0.69825 1.64722,0.69825 0.7109,0 1.25259,-0.22747 1.625,-0.68238 0.37237,-0.45492 0.55859,-1.10766 0.55859,-1.95825 0,-0.85483 -0.18622,-1.51074 -0.55859,-1.96777 -0.37241,-0.45703 -0.9141,-0.68555 -1.625,-0.68555 -0.69825,0 -1.24945,0.23909 -1.65357,0.71729 -0.40414,0.47818 -0.6062,1.13411 -0.6062,1.96777 z m 7.24268,0.0381 c 0,-1.15952 0.32373,-2.07464 0.97119,-2.74537 0.64746,-0.67074 1.52554,-1.0061 2.63428,-1.0061 1.05368,0 1.87994,0.32266 2.47876,0.96802 0.59878,0.64534 0.89819,1.53718 0.89819,2.67553 0,1.10872 -0.31952,2.00374 -0.9585,2.68506 -0.639,0.68131 -1.49594,1.02198 -2.5708,1.02198 -1.0495,0 -1.88739,-0.3301 -2.51367,-0.99024 -0.62631,-0.66015 -0.93945,-1.52978 -0.93945,-2.60888 z m 1.26953,-0.0381 c 0,0.80826 0.20416,1.44514 0.61255,1.91064 0.40835,0.46549 0.95743,0.69825 1.64721,0.69825 0.71091,0 1.2526,-0.22747 1.625,-0.68238 0.37238,-0.45492 0.5586,-1.10766 0.5586,-1.95825 0,-0.85483 -0.18622,-1.51074 -0.5586,-1.96777 -0.3724,-0.45703 -0.91409,-0.68555 -1.625,-0.68555 -0.69824,0 -1.24945,0.23909 -1.65356,0.71729 -0.40414,0.47818 -0.6062,1.13411 -0.6062,1.96777 z m 7.70605,3.47217 v -10.39112 h 1.24414 v 10.39112 z m 9.28662,-3.19287 h -4.91308 c 0.0211,0.74902 0.22638,1.32771 0.61572,1.73608 0.38931,0.40836 0.93311,0.61255 1.63135,0.61255 0.78711,0 1.5086,-0.2518 2.16455,-0.75537 v 1.11084 c -0.61786,0.43586 -1.43671,0.65381 -2.45654,0.65381 -1.01563,0 -1.80805,-0.32163 -2.3772,-0.96485 -0.56918,-0.64323 -0.85376,-1.53613 -0.85376,-2.67871 0,-1.07487 0.31207,-1.96142 0.93628,-2.65967 0.62417,-0.69824 1.39963,-1.04736 2.32641,-1.04736 0.91828,0 1.63556,0.29517 2.15186,0.8855 0.51627,0.59033 0.77441,1.41658 0.77441,2.47876 z m -1.24414,-0.99659 c -0.004,-0.63476 -0.15448,-1.12565 -0.45068,-1.47265 -0.29623,-0.34702 -0.71307,-0.52051 -1.25049,-0.52051 -0.49512,0 -0.92361,0.18408 -1.2854,0.55225 -0.36182,0.36816 -0.58929,0.84846 -0.68237,1.44091 z m 3.28809,-2.34228 c 0.69824,-0.43588 1.50439,-0.65381 2.41846,-0.65381 1.69268,0 2.53906,0.88867 2.53906,2.66602 v 4.51953 h -1.23145 v -1.08545 h -0.0317 c -0.48667,0.83365 -1.20395,1.25049 -2.15186,1.25049 -0.68134,0 -1.22299,-0.1841 -1.625,-0.55225 -0.40204,-0.36816 -0.60303,-0.8654 -0.60303,-1.4917 0,-1.31186 0.77652,-2.07568 2.32959,-2.2915 l 2.08203,-0.292 c 0,-1.14682 -0.47396,-1.72021 -1.42187,-1.72021 -0.84213,0 -1.6102,0.28352 -2.3042,0.85059 z m 2.08203,3.23096 c -0.57553,0.0762 -0.97226,0.22004 -1.19018,0.43164 -0.21796,0.21157 -0.32691,0.50781 -0.32691,0.88867 0,0.3343 0.11847,0.60725 0.35547,0.81885 0.23697,0.21157 0.55011,0.31738 0.93945,0.31738 0.54166,0 0.9881,-0.19043 1.33936,-0.57129 0.35123,-0.38086 0.52685,-0.85905 0.52685,-1.43457 v -0.67285 z m 11.08936,3.30078 h -1.2378 v -3.99268 c -3e-5,-1.44304 -0.52688,-2.16455 -1.58056,-2.16455 -0.5459,0 -0.99448,0.20313 -1.34571,0.60938 -0.35125,0.40625 -0.52685,0.92041 -0.52685,1.54248 v 4.00537 h -1.24414 v -7.02051 h 1.24414 v 1.16162 h 0.0254 c 0.52896,-0.88444 1.29703,-1.32666 2.3042,-1.32666 0.77017,0 1.35626,0.24649 1.7583,0.7395 0.40201,0.493 0.60303,1.21134 0.60303,2.15503 z"
     style="fill:#000000;stroke:none"
     clip-path="url(#clip31)"
     id="path159"
     transform="translate(-236.5,-15)" />
  <clipPath
     id="clip32">
    <path
       d="m 304,177 h 196 v 95 H 304 Z m 2,34 v 26 h 112 v -26 z"
       id="path161" />
  </clipPath>
  <path
     d="m 431,238 v -32 h 11"
     style="fill:none;stroke:#558ed5"
     clip-path="url(#clip32)"
     id="path164"
     transform="translate(-236.5,-15)" />
  <clipPath
     id="clip33">
    <path
       d="m 304,177 h 196 v 95 H 304 Z m 2,34 v 26 h 112 v -26 z"
       id="path166" />
  </clipPath>
  <path
     d="m 431,238 v 0 h 11"
     style="fill:none;stroke:#558ed5"
     clip-path="url(#clip33)"
     id="path169"
     transform="translate(-236.5,-15)" />
  <clipPath
     id="clip34">
    <path
       d="m 304,177 h 196 v 95 H 304 Z m 2,34 v 26 h 112 v -26 z"
       id="path171" />
  </clipPath>
  <path
     d="m 431,238 v 32 h 11"
     style="fill:none;stroke:#558ed5"
     clip-path="url(#clip34)"
     id="path174"
     transform="translate(-236.5,-15)" />
  <clipPath
     id="clip35">
    <path
       d="m 303,176 h 198 v 97 H 303 Z"
       id="path176" />
  </clipPath>
  <path
     d="m 418,238 h 13"
     style="fill:none;stroke:#558ed5"
     clip-path="url(#clip35)"
     id="path179"
     transform="translate(-236.5,-15)" />
  <clipPath
     id="clip36">
    <path
       d="m 303,208 h 119 v 33 H 303 Z"
       id="path181" />
  </clipPath>
  <path
     d="M 306,238 H 418 Z"
     style="fill:none;stroke:#558ed5;stroke-width:3"
     clip-path="url(#clip36)"
     id="path184"
     transform="translate(-236.5,-15)" />
  <clipPath
     id="clip37">
    <path
       d="m 315,213 h 95 v 23 h -95 z"
       id="path186" />
  </clipPath>
  <path
     d="m 324.50439,229.61304 h -1.24414 v -1.16797 h -0.0254 c -0.51205,0.88865 -1.30761,1.33301 -2.38672,1.33301 -0.88867,0 -1.59539,-0.31633 -2.12011,-0.94898 -0.52475,-0.63266 -0.78711,-1.48642 -0.78711,-2.56128 0,-1.15951 0.2962,-2.08944 0.88867,-2.78979 0.59244,-0.70037 1.36685,-1.05054 2.32324,-1.05054 0.95636,0 1.65039,0.37239 2.08203,1.11719 h 0.0254 v -4.32276 h 1.24414 z m -1.23779,-4.17676 c 0,-0.56284 -0.18515,-1.03362 -0.55542,-1.41235 -0.3703,-0.37876 -0.82626,-0.56812 -1.36792,-0.56812 -0.66015,0 -1.18066,0.24649 -1.56152,0.7395 -0.38086,0.493 -0.57129,1.1648 -0.57129,2.01538 0,0.78287 0.18301,1.40177 0.54907,1.85669 0.36603,0.45491 0.85376,0.68238 1.46314,0.68238 0.60089,0 1.09179,-0.22324 1.47265,-0.66968 0.38086,-0.44646 0.57129,-1.00188 0.57129,-1.66626 z m 3.87207,-2.35498 c 0.69824,-0.43588 1.5044,-0.65381 2.41846,-0.65381 1.69269,0 2.53906,0.88867 2.53906,2.66602 v 4.51953 h -1.23144 v -1.08545 h -0.0317 c -0.48667,0.83365 -1.20395,1.25049 -2.15186,1.25049 -0.68133,0 -1.22299,-0.1841 -1.625,-0.55225 -0.40204,-0.36816 -0.60303,-0.8654 -0.60303,-1.4917 0,-1.31186 0.77652,-2.07568 2.32959,-2.2915 l 2.08204,-0.292 c 0,-1.14682 -0.47397,-1.72021 -1.42188,-1.72021 -0.84213,0 -1.6102,0.28352 -2.3042,0.85059 z m 2.08203,3.23096 c -0.57553,0.0762 -0.97226,0.22004 -1.19018,0.43164 -0.21796,0.21157 -0.32691,0.50781 -0.32691,0.88867 0,0.3343 0.11847,0.60725 0.35547,0.81885 0.23697,0.21157 0.55011,0.31738 0.93946,0.31738 0.54165,0 0.98809,-0.19043 1.33935,-0.57129 0.35123,-0.38086 0.52686,-0.85905 0.52686,-1.43457 v -0.67285 z m 8.52491,3.23095 c -0.27085,0.1481 -0.63691,0.22217 -1.09815,0.22217 -1.25684,0 -1.88525,-0.69614 -1.88525,-2.08838 v -4.05615 h -1.20606 v -1.02832 h 1.20606 v -1.68848 L 336,220.5105 v 2.08203 h 1.74561 v 1.02832 H 336 v 3.83398 c 0,0.46126 0.0783,0.79134 0.23486,0.99024 0.15656,0.19888 0.41681,0.29834 0.78076,0.29834 0.2793,0 0.52262,-0.0783 0.72999,-0.23487 z m 1.78369,-6.46191 c 0.69824,-0.43588 1.50439,-0.65381 2.41845,-0.65381 1.69269,0 2.53907,0.88867 2.53907,2.66602 v 4.51953 h -1.23145 v -1.08545 h -0.0317 c -0.48666,0.83365 -1.20395,1.25049 -2.15185,1.25049 -0.68134,0 -1.22299,-0.1841 -1.625,-0.55225 -0.40204,-0.36816 -0.60303,-0.8654 -0.60303,-1.4917 0,-1.31186 0.77652,-2.07568 2.32959,-2.2915 l 2.08203,-0.292 c 0,-1.14682 -0.47397,-1.72021 -1.42187,-1.72021 -0.84214,0 -1.6102,0.28352 -2.3042,0.85059 z m 2.08203,3.23096 c -0.57553,0.0762 -0.97226,0.22004 -1.19019,0.43164 -0.21795,0.21157 -0.3269,0.50781 -0.3269,0.88867 0,0.3343 0.11847,0.60725 0.35547,0.81885 0.23697,0.21157 0.55011,0.31738 0.93945,0.31738 0.54166,0 0.9881,-0.19043 1.33936,-0.57129 0.35122,-0.38086 0.52685,-0.85905 0.52685,-1.43457 v -0.67285 z m 8.72168,1.78369 c 0.62628,0.45279 1.30127,0.6792 2.0249,0.6792 0.96906,0 1.45361,-0.31739 1.45361,-0.95215 0,-0.27085 -0.1058,-0.49407 -0.31738,-0.66968 -0.21161,-0.17563 -0.64111,-0.38403 -1.28857,-0.62524 -0.77866,-0.31316 -1.28437,-0.62314 -1.51709,-0.92994 -0.23276,-0.3068 -0.34912,-0.67814 -0.34912,-1.11401 0,-0.62207 0.26342,-1.12036 0.79028,-1.49487 0.52685,-0.37451 1.17535,-0.56177 1.94556,-0.56177 0.59667,0 1.15103,0.10367 1.66308,0.31104 v 1.1997 c -0.52475,-0.33854 -1.11932,-0.50781 -1.78369,-0.50781 -0.3978,0 -0.72153,0.0867 -0.97119,0.26025 -0.2497,0.1735 -0.37451,0.40201 -0.37451,0.68555 0,0.2793 0.0899,0.49722 0.26977,0.65381 0.17984,0.15657 0.57868,0.35757 1.19654,0.60303 0.78286,0.29199 1.31182,0.59456 1.58691,0.90771 0.27505,0.31314 0.4126,0.70035 0.4126,1.16162 0,0.64322 -0.26343,1.14998 -0.79029,1.52027 -0.52685,0.37027 -1.20922,0.55542 -2.04712,0.55542 -0.72787,0 -1.36264,-0.13755 -1.90429,-0.4126 z m 9.95947,1.44726 c -0.27084,0.1481 -0.6369,0.22217 -1.09814,0.22217 -1.25684,0 -1.88526,-0.69614 -1.88526,-2.08838 v -4.05615 h -1.20605 v -1.02832 h 1.20605 v -1.68848 l 1.23779,-0.39355 v 2.08203 h 1.74561 v 1.02832 h -1.74561 v 3.83398 c 0,0.46126 0.0783,0.79134 0.23487,0.99024 0.15655,0.19888 0.41681,0.29834 0.78076,0.29834 0.2793,0 0.52261,-0.0783 0.72998,-0.23487 z m 5.38281,-5.71924 c -0.20736,-0.14811 -0.49301,-0.22216 -0.85693,-0.22216 -0.48242,0 -0.88022,0.22534 -1.19336,0.67602 -0.31317,0.45069 -0.46973,1.04419 -0.46973,1.78052 v 3.55469 h -1.24414 v -7.02051 h 1.24414 v 1.42822 h 0.0254 c 0.35544,-1.03256 0.96906,-1.54883 1.84082,-1.54883 0.28351,0 0.50147,0.0317 0.65381,0.0952 z m 7.14112,5.78907 h -1.25049 v -1.1045 h -0.0254 c -0.46973,0.84635 -1.19126,1.26954 -2.16455,1.26954 -1.66309,0 -2.49463,-0.99448 -2.49463,-2.9834 v -4.20215 h 1.23144 v 4.01807 c 0,1.4261 0.5459,2.13916 1.6377,2.13916 0.54165,0 0.97964,-0.19996 1.31396,-0.59986 0.33429,-0.3999 0.50144,-0.90454 0.50147,-1.51391 v -4.04346 h 1.25049 z m 7.30615,-0.31739 c -0.53745,0.32161 -1.18491,0.48243 -1.94238,0.48243 -1.01566,0 -1.83237,-0.32586 -2.4502,-0.97754 -0.61786,-0.65171 -0.92676,-1.49594 -0.92676,-2.53272 0,-1.15104 0.33325,-2.07886 0.99976,-2.78345 0.6665,-0.70458 1.55835,-1.05688 2.67554,-1.05688 0.64321,0 1.19335,0.11426 1.65039,0.34277 v 1.23145 c -0.49512,-0.36394 -1.04526,-0.5459 -1.65039,-0.5459 -0.71094,0 -1.28965,0.24649 -1.73609,0.7395 -0.44647,0.493 -0.66968,1.14998 -0.66968,1.97095 0,0.80826 0.21051,1.44092 0.6316,1.89795 0.42105,0.45703 0.98916,0.68555 1.70434,0.68555 0.60513,0 1.17642,-0.1989 1.71387,-0.59668 z m 5.23681,0.24756 c -0.27084,0.1481 -0.6369,0.22217 -1.09814,0.22217 -1.25684,0 -1.88525,-0.69614 -1.88525,-2.08838 v -4.05615 h -1.20606 v -1.02832 h 1.20606 v -1.68848 l 1.23779,-0.39355 v 2.08203 h 1.7456 v 1.02832 h -1.7456 v 3.83398 c 0,0.46126 0.0783,0.79134 0.23486,0.99024 0.15656,0.19888 0.41681,0.29834 0.78076,0.29834 0.2793,0 0.52262,-0.0783 0.72998,-0.23487 z m 7.41407,0.0698 h -1.25049 v -1.1045 h -0.0254 c -0.46973,0.84635 -1.19126,1.26954 -2.16455,1.26954 -1.66309,0 -2.49463,-0.99448 -2.49463,-2.9834 v -4.20215 h 1.23144 v 4.01807 c 0,1.4261 0.5459,2.13916 1.6377,2.13916 0.54166,0 0.97964,-0.19996 1.31396,-0.59986 0.33429,-0.3999 0.50144,-0.90454 0.50147,-1.51391 v -4.04346 h 1.25049 z m 6.2207,-5.78907 c -0.20737,-0.14811 -0.49301,-0.22216 -0.85693,-0.22216 -0.48242,0 -0.88022,0.22534 -1.19336,0.67602 -0.31317,0.45069 -0.46973,1.04419 -0.46973,1.78052 v 3.55469 h -1.24414 v -7.02051 h 1.24414 v 1.42822 h 0.0254 c 0.35544,-1.03256 0.96906,-1.54883 1.84082,-1.54883 0.28351,0 0.50147,0.0317 0.65381,0.0952 z m 7.06494,2.5962 H 401.146 c 0.0211,0.74902 0.22638,1.32771 0.61572,1.73608 0.38931,0.40836 0.9331,0.61255 1.63135,0.61255 0.78711,0 1.5086,-0.2518 2.16455,-0.75537 v 1.11084 c -0.61786,0.43586 -1.43671,0.65381 -2.45655,0.65381 -1.01562,0 -1.80804,-0.32163 -2.37719,-0.96485 -0.56919,-0.64323 -0.85376,-1.53613 -0.85376,-2.67871 0,-1.07487 0.31207,-1.96142 0.93628,-2.65967 0.62417,-0.69824 1.39962,-1.04736 2.32641,-1.04736 0.91828,0 1.63556,0.29517 2.15186,0.8855 0.51626,0.59033 0.77441,1.41658 0.77441,2.47876 z m -1.24414,-0.99659 c -0.004,-0.63476 -0.15448,-1.12565 -0.45068,-1.47265 -0.29624,-0.34702 -0.71308,-0.52051 -1.25049,-0.52051 -0.49512,0 -0.92362,0.18408 -1.2854,0.55225 -0.36182,0.36816 -0.5893,0.84846 -0.68237,1.44091 z"
     style="fill:#000000;stroke:none"
     clip-path="url(#clip37)"
     id="path189"
     transform="translate(-236.5,-15)" />
  <clipPath
     id="clip38">
    <path
       d="m 420,218 h 13 v 13 h -13 z"
       id="path191" />
  </clipPath>
  <path
     d="m 430.49997,223.99998 c 0,-2.48527 -2.01471,-4.5 -4.5,-4.5 -2.48526,2e-5 -4.5,2.01473 -4.49997,4.50002 0,2.48528 2.01471,4.5 4.5,4.49998 2.48526,0 4.5,-2.01472 4.49997,-4.5 z"
     style="fill:#fafafa;stroke:none"
     clip-path="url(#clip38)"
     id="path194"
     transform="translate(-236.5,-15)" />
  <clipPath
     id="clip39">
    <path
       d="m 420,218 h 13 v 13 h -13 z"
       id="path196" />
  </clipPath>
  <path
     d="m 430.49997,223.99998 c 0,-2.48527 -2.01471,-4.5 -4.5,-4.5 -2.48526,2e-5 -4.5,2.01473 -4.49997,4.50002 0,2.48528 2.01471,4.5 4.5,4.49998 2.48526,0 4.5,-2.01472 4.49997,-4.5 z"
     style="fill:none;stroke:#558ed5"
     clip-path="url(#clip39)"
     id="path199"
     transform="translate(-236.5,-15)" />
  <clipPath
     id="clip40">
    <path
       d="m 420,218 h 13 v 13 h -13 z"
       id="path201" />
  </clipPath>
  <path
     d="m 424,224 h 4"
     style="fill:none;stroke:#96a0c8"
     clip-path="url(#clip40)"
     id="path204"
     transform="translate(-236.5,-15)" />
  <clipPath
     id="clip41">
    <path
       d="m 439,176 h 62 v 33 h -62 z"
       id="path206" />
  </clipPath>
  <path
     d="m 442,206 h 55 z"
     style="fill:none;stroke:#558ed5;stroke-width:3"
     clip-path="url(#clip41)"
     id="path209"
     transform="translate(-236.5,-15)" />
  <clipPath
     id="clip42">
    <path
       d="m 451,181 h 38 v 23 h -38 z"
       id="path211" />
  </clipPath>
  <path
     d="m 454.55762,187.90747 c 0.69824,-0.43588 1.50439,-0.65381 2.41845,-0.65381 1.69269,0 2.53907,0.88867 2.53907,2.66602 v 4.51953 h -1.23145 v -1.08545 h -0.0317 c -0.48666,0.83365 -1.20395,1.25049 -2.15185,1.25049 -0.68134,0 -1.22299,-0.1841 -1.625,-0.55225 -0.40204,-0.36816 -0.60303,-0.8654 -0.60303,-1.4917 0,-1.31186 0.77652,-2.07568 2.32959,-2.2915 l 2.08203,-0.29199 c 0,-1.14682 -0.47397,-1.72022 -1.42187,-1.72022 -0.84214,0 -1.6102,0.28353 -2.3042,0.85059 z m 2.08203,3.23096 c -0.57553,0.0762 -0.97226,0.22004 -1.19019,0.43164 -0.21795,0.21158 -0.3269,0.50781 -0.3269,0.88867 0,0.3343 0.11847,0.60725 0.35547,0.81885 0.23697,0.21158 0.55011,0.31738 0.93945,0.31738 0.54166,0 0.9881,-0.19043 1.33936,-0.57129 0.35122,-0.38086 0.52685,-0.85905 0.52685,-1.43457 v -0.67285 z m 8.91846,-2.48828 c -0.20737,-0.14812 -0.49302,-0.22217 -0.85694,-0.22217 -0.48242,0 -0.88022,0.22534 -1.19336,0.67602 -0.31317,0.45069 -0.46972,1.04419 -0.46972,1.78052 v 3.55469 h -1.24414 v -7.02051 h 1.24414 v 1.42822 h 0.0254 c 0.35543,-1.03256 0.96905,-1.54882 1.84082,-1.54882 0.28351,0 0.50146,0.0317 0.65381,0.0952 z m 5.10986,0 c -0.20737,-0.14812 -0.49301,-0.22217 -0.85693,-0.22217 -0.48243,0 -0.88022,0.22534 -1.19336,0.67602 -0.31318,0.45069 -0.46973,1.04419 -0.46973,1.78052 v 3.55469 h -1.24414 v -7.02051 h 1.24414 v 1.42822 h 0.0254 c 0.35544,-1.03256 0.96906,-1.54882 1.84082,-1.54882 0.28351,0 0.50146,0.0317 0.65381,0.0952 z m 1.51074,-0.74268 c 0.69824,-0.43588 1.5044,-0.65381 2.41846,-0.65381 1.69269,0 2.53906,0.88867 2.53906,2.66602 v 4.51953 h -1.23144 v -1.08545 h -0.0317 c -0.48667,0.83365 -1.20395,1.25049 -2.15186,1.25049 -0.68133,0 -1.22299,-0.1841 -1.625,-0.55225 -0.40204,-0.36816 -0.60303,-0.8654 -0.60303,-1.4917 0,-1.31186 0.77652,-2.07568 2.32959,-2.2915 l 2.08204,-0.29199 c 0,-1.14682 -0.47397,-1.72022 -1.42188,-1.72022 -0.84213,0 -1.6102,0.28353 -2.3042,0.85059 z m 2.08203,3.23096 c -0.57553,0.0762 -0.97226,0.22004 -1.19018,0.43164 -0.21796,0.21158 -0.32691,0.50781 -0.32691,0.88867 0,0.3343 0.11847,0.60725 0.35547,0.81885 0.23697,0.21158 0.55011,0.31738 0.93945,0.31738 0.54166,0 0.9881,-0.19043 1.33936,-0.57129 0.35123,-0.38086 0.52686,-0.85905 0.52686,-1.43457 v -0.67285 z m 10.86719,-3.71973 -3.18652,8.08057 c -0.59247,1.49803 -1.42823,2.24707 -2.50733,2.24707 -0.30893,0 -0.57342,-0.0339 -0.79346,-0.10156 v -1.0918 c 0.24122,0.0931 0.47394,0.13965 0.69825,0.13965 0.5628,0 0.98388,-0.33008 1.26318,-0.99024 l 0.53955,-1.27588 -2.75488,-7.00781 h 1.37744 l 1.83447,5.2749 0.15235,0.57764 h 0.0317 c 0.0254,-0.13119 0.0762,-0.3195 0.15235,-0.56494 l 1.91699,-5.2876 z"
     style="fill:#000000;stroke:none"
     clip-path="url(#clip42)"
     id="path214"
     transform="translate(-236.5,-15)" />
  <clipPath
     id="clip43">
    <path
       d="m 439,208 h 62 v 33 h -62 z"
       id="path216" />
  </clipPath>
  <path
     d="m 442,238 h 55 z"
     style="fill:none;stroke:#558ed5;stroke-width:3"
     clip-path="url(#clip43)"
     id="path219"
     transform="translate(-236.5,-15)" />
  <clipPath
     id="clip44">
    <path
       d="m 451,213 h 38 v 23 h -38 z"
       id="path221" />
  </clipPath>
  <path
     d="m 458.16943,229.54321 c -0.27084,0.1481 -0.6369,0.22217 -1.09814,0.22217 -1.25684,0 -1.88525,-0.69614 -1.88525,-2.08838 v -4.05615 h -1.20606 v -1.02832 h 1.20606 v -1.68848 l 1.23779,-0.39355 v 2.08203 h 1.7456 v 1.02832 h -1.7456 v 3.83398 c 0,0.46126 0.0783,0.79134 0.23486,0.99024 0.15656,0.19888 0.41681,0.29834 0.78076,0.29834 0.2793,0 0.52262,-0.0783 0.72998,-0.23487 z m 1.78369,-6.46191 c 0.69825,-0.43588 1.5044,-0.65381 2.41846,-0.65381 1.69269,0 2.53906,0.88867 2.53906,2.66602 v 4.51953 h -1.23144 v -1.08545 h -0.0317 c -0.48666,0.83365 -1.20395,1.25049 -2.15185,1.25049 -0.68134,0 -1.223,-0.1841 -1.625,-0.55225 -0.40204,-0.36816 -0.60303,-0.8654 -0.60303,-1.4917 0,-1.31186 0.77652,-2.07568 2.32959,-2.2915 l 2.08203,-0.292 c 0,-1.14682 -0.47397,-1.72021 -1.42188,-1.72021 -0.84213,0 -1.61019,0.28352 -2.3042,0.85059 z m 2.08204,3.23096 c -0.57553,0.0762 -0.97226,0.22004 -1.19019,0.43164 -0.21796,0.21157 -0.3269,0.50781 -0.3269,0.88867 0,0.3343 0.11847,0.60725 0.35547,0.81885 0.23696,0.21157 0.55011,0.31738 0.93945,0.31738 0.54165,0 0.9881,-0.19043 1.33935,-0.57129 0.35123,-0.38086 0.52686,-0.85905 0.52686,-1.43457 v -0.67285 z m 6.39843,2.31054 v 0.99024 h -1.24414 v -10.39112 h 1.24414 v 4.58301 h 0.0254 c 0.55011,-0.9183 1.35416,-1.37744 2.41211,-1.37744 0.88019,0 1.5795,0.30997 2.0979,0.92993 0.51838,0.61995 0.77759,1.46736 0.77759,2.54224 0,1.18489 -0.29095,2.12752 -0.8728,2.82788 -0.58188,0.70035 -1.35736,1.05054 -2.32642,1.05054 -0.91406,0 -1.6102,-0.38511 -2.08838,-1.15528 z m -0.006,-1.89795 c 0,0.56705 0.18408,1.0463 0.55224,1.43775 0.36817,0.39143 0.82941,0.58716 1.38379,0.58716 0.66013,0 1.17642,-0.25391 1.54883,-0.76172 0.37237,-0.50782 0.55859,-1.2103 0.55859,-2.10742 0,-0.74057 -0.17352,-1.32984 -0.5205,-1.76783 -0.34702,-0.43799 -0.82099,-0.65698 -1.42188,-0.65698 -0.60937,0 -1.11191,0.21793 -1.50757,0.65381 -0.39569,0.43587 -0.5935,0.99023 -0.5935,1.66309 z m 7.30615,2.88819 v -10.39112 h 1.24414 v 10.39112 z m 9.28662,-3.19287 h -4.91309 c 0.0212,0.74902 0.22638,1.32771 0.61573,1.73608 0.38931,0.40836 0.9331,0.61255 1.63134,0.61255 0.78711,0 1.50861,-0.2518 2.16455,-0.75537 v 1.11084 c -0.61785,0.43586 -1.4367,0.65381 -2.45654,0.65381 -1.01562,0 -1.80804,-0.32163 -2.3772,-0.96485 -0.56918,-0.64323 -0.85376,-1.53613 -0.85376,-2.67871 0,-1.07487 0.31208,-1.96142 0.93628,-2.65967 0.62418,-0.69824 1.39963,-1.04736 2.32642,-1.04736 0.91827,0 1.63556,0.29517 2.15186,0.8855 0.51626,0.59033 0.77441,1.41658 0.77441,2.47876 z m -1.24414,-0.99659 c -0.004,-0.63476 -0.15448,-1.12565 -0.45068,-1.47265 -0.29624,-0.34702 -0.71308,-0.52051 -1.25049,-0.52051 -0.49512,0 -0.92362,0.18408 -1.2854,0.55225 -0.36182,0.36816 -0.5893,0.84846 -0.68238,1.44091 z"
     style="fill:#000000;stroke:none"
     clip-path="url(#clip44)"
     id="path224"
     transform="translate(-236.5,-15)" />
  <clipPath
     id="clip45">
    <path
       d="m 439,240 h 47 v 33 h -47 z"
       id="path226" />
  </clipPath>
  <path
     d="m 442,270 h 40 z"
     style="fill:none;stroke:#558ed5;stroke-width:3"
     clip-path="url(#clip45)"
     id="path229"
     transform="translate(-236.5,-15)" />
  <clipPath
     id="clip46">
    <path
       d="m 451,245 h 23 v 23 h -23 z"
       id="path231" />
  </clipPath>
  <path
     d="m 453.65283,261.61304 v -10.39112 h 1.24414 v 10.39112 z m 3.41504,-9.4961 c 0,-0.22006 0.0751,-0.40519 0.22534,-0.55542 0.15021,-0.15023 0.33536,-0.22534 0.55542,-0.22534 0.22428,0 0.41364,0.074 0.56812,0.22217 0.15445,0.1481 0.23169,0.3343 0.23169,0.55859 0,0.22005 -0.0772,0.40308 -0.23169,0.54908 -0.15448,0.14599 -0.34384,0.21899 -0.56812,0.21899 -0.2243,0 -0.41049,-0.073 -0.55859,-0.21899 -0.14813,-0.146 -0.22217,-0.32903 -0.22217,-0.54908 z m 0.146,9.4961 v -7.02051 h 1.24414 v 7.02051 z m 3.17383,-1.51709 c 0.62628,0.45279 1.30126,0.6792 2.0249,0.6792 0.96905,0 1.45361,-0.31739 1.45361,-0.95215 0,-0.27085 -0.1058,-0.49408 -0.31738,-0.66968 -0.21161,-0.17563 -0.64115,-0.38403 -1.28858,-0.62524 -0.77865,-0.31318 -1.28436,-0.62314 -1.51709,-0.92994 -0.23275,-0.30682 -0.34915,-0.67816 -0.34912,-1.11401 -3e-5,-0.62207 0.26343,-1.12036 0.79029,-1.49487 0.52685,-0.37451 1.17535,-0.56177 1.94555,-0.56177 0.59668,0 1.15103,0.10367 1.66309,0.31104 v 1.1997 c -0.52475,-0.33854 -1.11932,-0.50781 -1.78369,-0.50781 -0.3978,0 -0.72153,0.0867 -0.97119,0.26025 -0.2497,0.1735 -0.37452,0.40201 -0.37452,0.68555 0,0.2793 0.0899,0.49722 0.26978,0.65381 0.17984,0.15655 0.57867,0.35757 1.19653,0.60303 0.78287,0.29199 1.31183,0.59454 1.58692,0.90771 0.27505,0.31314 0.41259,0.70035 0.41259,1.16162 0,0.64322 -0.26342,1.14997 -0.79028,1.52027 -0.52685,0.37027 -1.20923,0.55542 -2.04712,0.55542 -0.72787,0 -1.36264,-0.13755 -1.90429,-0.4126 z m 9.95947,1.44726 c -0.27085,0.1481 -0.6369,0.22217 -1.09815,0.22217 -1.25683,0 -1.88525,-0.69614 -1.88525,-2.08838 v -4.05615 h -1.20606 v -1.02832 h 1.20606 v -1.68848 l 1.23779,-0.39355 v 2.08203 h 1.74561 v 1.02832 h -1.74561 v 3.83398 c 0,0.46125 0.0783,0.79132 0.23487,0.99024 0.15655,0.19888 0.4168,0.29834 0.78076,0.29834 0.27929,0 0.52261,-0.0783 0.72998,-0.23487 z"
     style="fill:#000000;stroke:none"
     clip-path="url(#clip46)"
     id="path234"
     transform="translate(-236.5,-15)" />
  <clipPath
     id="clip47">
    <path
       d="m 304,273 h 215 v 63 H 304 Z m 2,18 v 26 h 76 v -26 z"
       id="path236" />
  </clipPath>
  <path
     d="m 395,318 v -16 h 11"
     style="fill:none;stroke:#558ed5"
     clip-path="url(#clip47)"
     id="path239"
     transform="translate(-236.5,-15)" />
  <clipPath
     id="clip48">
    <path
       d="m 304,273 h 215 v 63 H 304 Z m 2,18 v 26 h 76 v -26 z"
       id="path241" />
  </clipPath>
  <path
     d="m 395,318 v 16 h 11"
     style="fill:none;stroke:#558ed5"
     clip-path="url(#clip48)"
     id="path244"
     transform="translate(-236.5,-15)" />
  <clipPath
     id="clip49">
    <path
       d="m 303,272 h 217 v 65 H 303 Z"
       id="path246" />
  </clipPath>
  <path
     d="m 382,318 h 13"
     style="fill:none;stroke:#558ed5"
     clip-path="url(#clip49)"
     id="path249"
     transform="translate(-236.5,-15)" />
  <clipPath
     id="clip50">
    <path
       d="m 303,288 h 83 v 33 h -83 z"
       id="path251" />
  </clipPath>
  <path
     d="m 306,318 h 76 z"
     style="fill:none;stroke:#558ed5;stroke-width:3"
     clip-path="url(#clip50)"
     id="path254"
     transform="translate(-236.5,-15)" />
  <clipPath
     id="clip51">
    <path
       d="m 315,293 h 59 v 23 h -59 z"
       id="path256" />
  </clipPath>
  <path
     d="m 322.5481,300.35815 c -0.23276,-0.12274 -0.48456,-0.18408 -0.75538,-0.18408 -0.77865,0 -1.16796,0.48242 -1.16796,1.44727 v 1.04736 h 1.64404 v 1.02832 h -1.64404 v 5.99219 h -1.23145 v -5.99219 h -1.19971 v -1.02832 h 1.19971 v -1.10449 c 0,-0.75327 0.21686,-1.34467 0.65064,-1.77417 0.43374,-0.42954 0.98492,-0.64429 1.65356,-0.64429 0.35547,0 0.63898,0.0402 0.85059,0.12061 z m 6.83642,9.33106 h -1.25049 v -1.10449 h -0.0254 c -0.46972,0.84634 -1.19125,1.26953 -2.16455,1.26953 -1.66308,0 -2.49463,-0.99448 -2.49463,-2.9834 v -4.20215 h 1.23145 v 4.01807 c 0,1.42608 0.5459,2.13916 1.63769,2.13916 0.54166,0 0.97965,-0.19995 1.31397,-0.59986 0.33429,-0.3999 0.50146,-0.90454 0.50146,-1.51391 v -4.04346 h 1.25049 z m 8.3916,0 h -1.23779 v -3.99268 c 0,-1.44305 -0.52686,-2.16455 -1.58057,-2.16455 -0.54589,0 -0.99447,0.20313 -1.3457,0.60938 -0.35126,0.40625 -0.52685,0.92041 -0.52685,1.54248 v 4.00537 h -1.24415 v -7.02051 h 1.24415 v 1.16162 h 0.0254 c 0.52896,-0.88446 1.29702,-1.32666 2.30419,-1.32666 0.77018,0 1.35627,0.24649 1.75831,0.7395 0.402,0.49299 0.60302,1.21134 0.60302,2.15503 z m 7.16651,-0.31738 c -0.53745,0.32159 -1.18491,0.48242 -1.94239,0.48242 -1.01562,0 -1.83236,-0.32587 -2.45019,-0.97754 -0.61786,-0.6517 -0.92676,-1.49594 -0.92676,-2.53272 0,-1.15106 0.33325,-2.07885 0.99976,-2.78344 0.6665,-0.70459 1.55835,-1.05689 2.67553,-1.05689 0.64322,0 1.19336,0.11426 1.65039,0.34278 v 1.23144 c -0.49511,-0.36395 -1.04525,-0.5459 -1.65039,-0.5459 -0.71093,0 -1.28964,0.24649 -1.73608,0.7395 -0.44647,0.49299 -0.66968,1.14997 -0.66968,1.97095 0,0.80826 0.21051,1.44092 0.63159,1.89795 0.42106,0.45703 0.98917,0.68555 1.70435,0.68555 0.60513,0 1.17642,-0.19892 1.71387,-0.59668 z m 5.23681,0.24755 c -0.27084,0.14811 -0.6369,0.22217 -1.09814,0.22217 -1.25684,0 -1.88526,-0.69613 -1.88526,-2.08838 v -4.05615 h -1.20605 v -1.02832 h 1.20605 v -1.68848 l 1.2378,-0.39355 v 2.08203 h 1.7456 v 1.02832 h -1.7456 v 3.83399 c 0,0.46124 0.0783,0.79132 0.23486,0.99023 0.15656,0.19888 0.41681,0.29834 0.78076,0.29834 0.2793,0 0.52262,-0.0783 0.72998,-0.23486 z m 1.46631,-9.42626 c 0,-0.22007 0.0751,-0.40522 0.22534,-0.55542 0.15021,-0.15024 0.33536,-0.22535 0.55542,-0.22535 0.22428,0 0.41364,0.074 0.56812,0.22217 0.15445,0.1481 0.23169,0.33429 0.23169,0.5586 0,0.22003 -0.0772,0.40307 -0.23169,0.54907 -0.15448,0.14599 -0.34384,0.21899 -0.56812,0.21899 -0.2243,0 -0.41049,-0.073 -0.55859,-0.21899 -0.14813,-0.146 -0.22217,-0.32904 -0.22217,-0.54907 z m 0.146,9.49609 v -7.02051 h 1.24414 v 7.02051 z m 3.09765,-3.43408 c 0,-1.15952 0.32373,-2.07465 0.9712,-2.74536 0.64746,-0.67075 1.52554,-1.00611 2.63427,-1.00611 1.05368,0 1.87995,0.32266 2.47876,0.96802 0.59879,0.64532 0.8982,1.53717 0.8982,2.67554 0,1.1087 -0.31952,2.00372 -0.9585,2.68506 -0.63901,0.6813 -1.49594,1.02197 -2.5708,1.02197 -1.0495,0 -1.88739,-0.33008 -2.51367,-0.99024 -0.62631,-0.66015 -0.93946,-1.52978 -0.93946,-2.60888 z m 1.26954,-0.0381 c 0,0.80826 0.20416,1.44513 0.61254,1.91065 0.40836,0.46548 0.95743,0.69824 1.64722,0.69824 0.71091,0 1.2526,-0.22748 1.625,-0.68238 0.37238,-0.45492 0.55859,-1.10766 0.55859,-1.95825 0,-0.85483 -0.18621,-1.51074 -0.55859,-1.96777 -0.3724,-0.45703 -0.91409,-0.68555 -1.625,-0.68555 -0.69824,0 -1.24945,0.23908 -1.65356,0.71729 -0.40415,0.47818 -0.6062,1.13409 -0.6062,1.96777 z m 13.64746,3.47217 h -1.2378 v -3.99268 c -3e-5,-1.44305 -0.52688,-2.16455 -1.58056,-2.16455 -0.5459,0 -0.99448,0.20313 -1.34571,0.60938 -0.35125,0.40625 -0.52685,0.92041 -0.52685,1.54248 v 4.00537 h -1.24414 v -7.02051 h 1.24414 v 1.16162 h 0.0254 c 0.52896,-0.88446 1.29703,-1.32666 2.3042,-1.32666 0.77017,0 1.35626,0.24649 1.7583,0.7395 0.40201,0.49299 0.60303,1.21134 0.60303,2.15503 z"
     style="fill:#000000;stroke:none"
     clip-path="url(#clip51)"
     id="path259"
     transform="translate(-236.5,-15)" />
  <clipPath
     id="clip52">
    <path
       d="m 384,298 h 13 v 13 h -13 z"
       id="path261" />
  </clipPath>
  <path
     d="m 394.49997,304 c 0,-2.48529 -2.01471,-4.5 -4.5,-4.5 -2.48526,0 -4.5,2.01471 -4.49997,4.5 0,2.48529 2.01471,4.5 4.5,4.5 2.48526,0 4.5,-2.01474 4.49997,-4.5 z"
     style="fill:#fafafa;stroke:none"
     clip-path="url(#clip52)"
     id="path264"
     transform="translate(-236.5,-15)" />
  <clipPath
     id="clip53">
    <path
       d="m 384,298 h 13 v 13 h -13 z"
       id="path266" />
  </clipPath>
  <path
     d="m 394.49997,304 c 0,-2.48529 -2.01471,-4.5 -4.5,-4.5 -2.48526,0 -4.5,2.01471 -4.49997,4.5 0,2.48529 2.01471,4.5 4.5,4.5 2.48526,0 4.5,-2.01474 4.49997,-4.5 z"
     style="fill:none;stroke:#558ed5"
     clip-path="url(#clip53)"
     id="path269"
     transform="translate(-236.5,-15)" />
  <clipPath
     id="clip54">
    <path
       d="m 384,298 h 13 v 13 h -13 z"
       id="path271" />
  </clipPath>
  <path
     d="m 388,304 h 4"
     style="fill:none;stroke:#96a0c8"
     clip-path="url(#clip54)"
     id="path274"
     transform="translate(-236.5,-15)" />
  <clipPath
     id="clip55">
    <path
       d="m 403,272 h 117 v 33 H 403 Z"
       id="path276" />
  </clipPath>
  <path
     d="M 406,302 H 516 Z"
     style="fill:none;stroke:#558ed5;stroke-width:3"
     clip-path="url(#clip55)"
     id="path279"
     transform="translate(-236.5,-15)" />
  <clipPath
     id="clip56">
    <path
       d="m 415,277 h 93 v 23 h -93 z"
       id="path281" />
  </clipPath>
  <path
     d="m 417.96609,292.09595 c 0.62629,0.45279 1.30127,0.6792 2.02491,0.6792 0.96905,0 1.45361,-0.31739 1.45361,-0.95215 0,-0.27085 -0.1058,-0.49408 -0.31738,-0.66968 -0.21161,-0.17563 -0.64115,-0.38403 -1.28858,-0.62524 -0.77865,-0.31318 -1.28436,-0.62314 -1.51709,-0.92994 -0.23275,-0.30682 -0.34915,-0.67816 -0.34912,-1.11401 -3e-5,-0.62207 0.26343,-1.12036 0.79029,-1.49487 0.52685,-0.37451 1.17535,-0.56177 1.94555,-0.56177 0.59668,0 1.15103,0.10367 1.66309,0.31104 v 1.1997 c -0.52475,-0.33856 -1.11933,-0.50781 -1.78369,-0.50781 -0.3978,0 -0.72153,0.0867 -0.97119,0.26025 -0.2497,0.1735 -0.37452,0.40201 -0.37452,0.68555 0,0.2793 0.0899,0.49722 0.26978,0.65381 0.17984,0.15655 0.57867,0.35757 1.19653,0.60303 0.78287,0.29199 1.31183,0.59454 1.58692,0.90771 0.27505,0.31314 0.41259,0.70035 0.41259,1.16162 0,0.64322 -0.26342,1.14997 -0.79028,1.52027 -0.52685,0.37027 -1.20923,0.55542 -2.04712,0.55542 -0.72787,0 -1.36264,-0.13755 -1.9043,-0.4126 z m 9.95948,1.44726 c -0.27085,0.1481 -0.6369,0.22217 -1.09815,0.22217 -1.25683,0 -1.88525,-0.69614 -1.88525,-2.08838 v -4.05615 h -1.20606 v -1.02832 h 1.20606 v -1.68848 l 1.23779,-0.39355 v 2.08203 h 1.74561 v 1.02832 h -1.74561 v 3.83398 c 0,0.46125 0.0783,0.79132 0.23487,0.99024 0.15655,0.19888 0.4168,0.29834 0.78076,0.29834 0.27929,0 0.52261,-0.0783 0.72998,-0.23487 z m 1.78369,-6.46191 c 0.69824,-0.43588 1.50439,-0.65381 2.41846,-0.65381 1.69268,0 2.53906,0.88867 2.53906,2.66602 v 4.51953 h -1.23145 v -1.08545 h -0.0317 c -0.48666,0.83365 -1.20394,1.25049 -2.15185,1.25049 -0.68134,0 -1.22299,-0.18409 -1.625,-0.55225 -0.40204,-0.36816 -0.60303,-0.86542 -0.60303,-1.4917 0,-1.31186 0.77652,-2.07568 2.32959,-2.2915 l 2.08203,-0.292 c 0,-1.14682 -0.47397,-1.72021 -1.42187,-1.72021 -0.84213,0 -1.6102,0.28351 -2.3042,0.85059 z m 2.08203,3.23096 c -0.57553,0.0762 -0.97226,0.22003 -1.19019,0.43164 -0.21795,0.21157 -0.3269,0.50781 -0.3269,0.88867 0,0.33429 0.11847,0.60724 0.35547,0.81885 0.23697,0.21157 0.55011,0.31738 0.93945,0.31738 0.54166,0 0.9881,-0.19043 1.33936,-0.57129 0.35122,-0.38086 0.52685,-0.85907 0.52685,-1.43457 v -0.67285 z m 8.5249,3.23095 c -0.27084,0.1481 -0.6369,0.22217 -1.09814,0.22217 -1.25684,0 -1.88526,-0.69614 -1.88526,-2.08838 v -4.05615 h -1.20605 v -1.02832 h 1.20605 v -1.68848 l 1.2378,-0.39355 v 2.08203 h 1.7456 v 1.02832 h -1.7456 v 3.83398 c 0,0.46125 0.0783,0.79132 0.23486,0.99024 0.15656,0.19888 0.41681,0.29834 0.78076,0.29834 0.2793,0 0.52262,-0.0783 0.72998,-0.23487 z m 1.46631,-9.42627 c 0,-0.22006 0.0751,-0.40521 0.22534,-0.55542 0.15021,-0.15023 0.33536,-0.22534 0.55542,-0.22534 0.22428,0 0.41364,0.074 0.56812,0.22217 0.15445,0.1481 0.23169,0.33429 0.23169,0.55859 0,0.22004 -0.0772,0.40308 -0.23169,0.54908 -0.15448,0.14599 -0.34384,0.21899 -0.56812,0.21899 -0.2243,0 -0.41049,-0.073 -0.55859,-0.21899 -0.14813,-0.146 -0.22217,-0.32904 -0.22217,-0.54908 z m 0.146,9.4961 v -7.02051 h 1.24414 v 7.02051 z m 3.17383,-1.51709 c 0.62628,0.45279 1.30126,0.6792 2.0249,0.6792 0.96905,0 1.45361,-0.31739 1.45361,-0.95215 0,-0.27085 -0.1058,-0.49408 -0.31738,-0.66968 -0.21161,-0.17563 -0.64115,-0.38403 -1.28858,-0.62524 -0.77865,-0.31318 -1.28436,-0.62314 -1.51709,-0.92994 -0.23275,-0.30682 -0.34915,-0.67816 -0.34912,-1.11401 -3e-5,-0.62207 0.26343,-1.12036 0.79029,-1.49487 0.52685,-0.37451 1.17535,-0.56177 1.94555,-0.56177 0.59668,0 1.15103,0.10367 1.66309,0.31104 v 1.1997 c -0.52475,-0.33856 -1.11932,-0.50781 -1.78369,-0.50781 -0.3978,0 -0.72153,0.0867 -0.97119,0.26025 -0.2497,0.1735 -0.37452,0.40201 -0.37452,0.68555 0,0.2793 0.0899,0.49722 0.26978,0.65381 0.17984,0.15655 0.57867,0.35757 1.19653,0.60303 0.78287,0.29199 1.31183,0.59454 1.58692,0.90771 0.27505,0.31314 0.41259,0.70035 0.41259,1.16162 0,0.64322 -0.26342,1.14997 -0.79028,1.52027 -0.52685,0.37027 -1.20923,0.55542 -2.04712,0.55542 -0.72787,0 -1.36264,-0.13755 -1.90429,-0.4126 z m 9.95947,1.44726 c -0.27085,0.1481 -0.6369,0.22217 -1.09815,0.22217 -1.25683,0 -1.88525,-0.69614 -1.88525,-2.08838 v -4.05615 h -1.20606 v -1.02832 h 1.20606 v -1.68848 l 1.23779,-0.39355 v 2.08203 h 1.74561 v 1.02832 h -1.74561 v 3.83398 c 0,0.46125 0.0783,0.79132 0.23487,0.99024 0.15655,0.19888 0.41681,0.29834 0.78076,0.29834 0.27929,0 0.52261,-0.0783 0.72998,-0.23487 z m 1.46631,-9.42627 c 0,-0.22006 0.0751,-0.40521 0.22534,-0.55542 0.15021,-0.15023 0.33536,-0.22534 0.55542,-0.22534 0.22427,0 0.41363,0.074 0.56811,0.22217 0.15445,0.1481 0.23169,0.33429 0.23169,0.55859 0,0.22004 -0.0772,0.40308 -0.23169,0.54908 -0.15448,0.14599 -0.34384,0.21899 -0.56811,0.21899 -0.22431,0 -0.41049,-0.073 -0.5586,-0.21899 -0.14813,-0.146 -0.22216,-0.32904 -0.22216,-0.54908 z m 0.14599,9.4961 v -7.02051 h 1.24414 v 7.02051 z m 8.41699,-0.31739 c -0.53744,0.3216 -1.1849,0.48243 -1.94238,0.48243 -1.01565,0 -1.83236,-0.32587 -2.45019,-0.97754 -0.61786,-0.65171 -0.92676,-1.49594 -0.92676,-2.53272 0,-1.15106 0.33325,-2.07886 0.99975,-2.78345 0.66651,-0.70458 1.55835,-1.05688 2.67554,-1.05688 0.64322,0 1.19336,0.11426 1.65039,0.34277 v 1.23145 c -0.49511,-0.36395 -1.04525,-0.5459 -1.65039,-0.5459 -0.71094,0 -1.28964,0.24649 -1.73608,0.7395 -0.44647,0.49298 -0.66968,1.14997 -0.66968,1.97095 0,0.80826 0.21051,1.44092 0.63159,1.89795 0.42105,0.45703 0.98917,0.68555 1.70435,0.68555 0.60513,0 1.17642,-0.19892 1.71386,-0.59668 z m 2.03125,-6.21435 c 0.69825,-0.43588 1.5044,-0.65381 2.41846,-0.65381 1.69269,0 2.53906,0.88867 2.53906,2.66602 v 4.51953 h -1.23144 v -1.08545 h -0.0317 c -0.48666,0.83365 -1.20395,1.25049 -2.15185,1.25049 -0.68134,0 -1.223,-0.18409 -1.625,-0.55225 -0.40204,-0.36816 -0.60303,-0.86542 -0.60303,-1.4917 0,-1.31186 0.77652,-2.07568 2.32959,-2.2915 l 2.08203,-0.292 c 0,-1.14682 -0.47397,-1.72021 -1.42188,-1.72021 -0.84213,0 -1.61019,0.28351 -2.3042,0.85059 z m 2.08204,3.23096 c -0.57553,0.0762 -0.97226,0.22003 -1.19019,0.43164 -0.21796,0.21157 -0.3269,0.50781 -0.3269,0.88867 0,0.33429 0.11847,0.60724 0.35547,0.81885 0.23696,0.21157 0.55011,0.31738 0.93945,0.31738 0.54165,0 0.9881,-0.19043 1.33935,-0.57129 0.35123,-0.38086 0.52686,-0.85907 0.52686,-1.43457 v -0.67285 z m 5.14795,3.30078 v -10.39112 h 1.24414 v 10.39112 z m 10.89892,-0.0698 c -0.27084,0.1481 -0.6369,0.22217 -1.09814,0.22217 -1.25684,0 -1.88526,-0.69614 -1.88526,-2.08838 v -4.05615 h -1.20605 v -1.02832 h 1.20605 v -1.68848 l 1.2378,-0.39355 v 2.08203 h 1.7456 v 1.02832 h -1.7456 v 3.83398 c 0,0.46125 0.0783,0.79132 0.23486,0.99024 0.15655,0.19888 0.41681,0.29834 0.78076,0.29834 0.2793,0 0.52261,-0.0783 0.72998,-0.23487 z m 7.33789,-3.12304 h -4.91308 c 0.0211,0.74902 0.22638,1.32769 0.61572,1.73608 0.38931,0.40836 0.9331,0.61255 1.63135,0.61255 0.78711,0 1.5086,-0.2518 2.16455,-0.75537 v 1.11084 c -0.61786,0.43585 -1.43671,0.65381 -2.45655,0.65381 -1.01562,0 -1.80804,-0.32163 -2.37719,-0.96485 -0.56919,-0.64325 -0.85376,-1.53613 -0.85376,-2.67871 0,-1.07489 0.31207,-1.96142 0.93628,-2.65967 0.62417,-0.69824 1.39962,-1.04736 2.32641,-1.04736 0.91828,0 1.63556,0.29517 2.15186,0.8855 0.51626,0.59033 0.77441,1.41656 0.77441,2.47876 z m -1.24414,-0.99659 c -0.004,-0.63476 -0.15448,-1.12567 -0.45068,-1.47265 -0.29624,-0.34702 -0.71308,-0.52051 -1.25049,-0.52051 -0.49512,0 -0.92362,0.18408 -1.2854,0.55225 -0.36182,0.36816 -0.5893,0.84845 -0.68237,1.44091 z m 2.72949,2.67237 c 0.62629,0.45279 1.30127,0.6792 2.02491,0.6792 0.96905,0 1.45361,-0.31739 1.45361,-0.95215 0,-0.27085 -0.10581,-0.49408 -0.31738,-0.66968 -0.21161,-0.17563 -0.64115,-0.38403 -1.28858,-0.62524 -0.77865,-0.31318 -1.28436,-0.62314 -1.51709,-0.92994 -0.23276,-0.30682 -0.34915,-0.67816 -0.34912,-1.11401 -3e-5,-0.62207 0.26343,-1.12036 0.79028,-1.49487 0.52686,-0.37451 1.17536,-0.56177 1.94556,-0.56177 0.59668,0 1.15103,0.10367 1.66309,0.31104 v 1.1997 c -0.52475,-0.33856 -1.11933,-0.50781 -1.78369,-0.50781 -0.3978,0 -0.72153,0.0867 -0.9712,0.26025 -0.24969,0.1735 -0.37451,0.40201 -0.37451,0.68555 0,0.2793 0.0899,0.49722 0.26978,0.65381 0.17984,0.15655 0.57867,0.35757 1.19653,0.60303 0.78287,0.29199 1.31183,0.59454 1.58691,0.90771 0.27506,0.31314 0.4126,0.70035 0.4126,1.16162 0,0.64322 -0.26343,1.14997 -0.79028,1.52027 -0.52686,0.37027 -1.20923,0.55542 -2.04712,0.55542 -0.72787,0 -1.36264,-0.13755 -1.9043,-0.4126 z m 9.95948,1.44726 c -0.27085,0.1481 -0.63691,0.22217 -1.09815,0.22217 -1.25683,0 -1.88525,-0.69614 -1.88525,-2.08838 v -4.05615 h -1.20606 v -1.02832 h 1.20606 v -1.68848 l 1.23779,-0.39355 v 2.08203 h 1.74561 v 1.02832 h -1.74561 v 3.83398 c 0,0.46125 0.0783,0.79132 0.23486,0.99024 0.15656,0.19888 0.41681,0.29834 0.78077,0.29834 0.27929,0 0.52261,-0.0783 0.72998,-0.23487 z"
     style="fill:#000000;stroke:none"
     clip-path="url(#clip56)"
     id="path284"
     transform="translate(-236.5,-15)" />
  <clipPath
     id="clip57">
    <path
       d="m 403,304 h 108 v 33 H 403 Z"
       id="path286" />
  </clipPath>
  <path
     d="M 406,334 H 507 Z"
     style="fill:none;stroke:#558ed5;stroke-width:3"
     clip-path="url(#clip57)"
     id="path289"
     transform="translate(-236.5,-15)" />
  <clipPath
     id="clip58">
    <path
       d="m 415,309 h 84 v 23 h -84 z"
       id="path291" />
  </clipPath>
  <path
     d="m 424.59036,318.59253 -2.78027,7.02051 h -1.25684 l -2.64062,-7.02051 h 1.3584 l 1.71386,5.01465 c 0.13965,0.40201 0.22217,0.73843 0.24756,1.00928 h 0.0317 c 0.0423,-0.35547 0.11636,-0.68345 0.22217,-0.98389 l 1.79639,-5.04004 z m 1.21875,-2.47559 c 0,-0.22006 0.0751,-0.40518 0.22534,-0.55542 0.15021,-0.15023 0.33536,-0.22534 0.55542,-0.22534 0.22428,0 0.41364,0.0741 0.56812,0.22217 0.15445,0.1481 0.23169,0.33432 0.23169,0.55859 0,0.22007 -0.0772,0.40308 -0.23169,0.54908 -0.15448,0.14599 -0.34384,0.21899 -0.56812,0.21899 -0.2243,0 -0.41049,-0.073 -0.55859,-0.21899 -0.14813,-0.146 -0.22217,-0.32901 -0.22217,-0.54908 z m 0.146,9.4961 v -7.02051 h 1.24414 v 7.02051 z m 3.17383,-1.51709 c 0.62628,0.45279 1.30127,0.6792 2.0249,0.6792 0.96905,0 1.45361,-0.31739 1.45361,-0.95215 0,-0.27085 -0.1058,-0.49405 -0.31738,-0.66968 -0.21161,-0.17563 -0.64114,-0.38403 -1.28857,-0.62524 -0.77866,-0.31314 -1.28437,-0.62314 -1.51709,-0.92994 -0.23276,-0.30679 -0.34916,-0.67813 -0.34913,-1.11401 -3e-5,-0.62207 0.26343,-1.12036 0.79029,-1.49487 0.52685,-0.37451 1.17535,-0.56177 1.94555,-0.56177 0.59668,0 1.15104,0.10367 1.66309,0.31104 v 1.1997 c -0.52475,-0.33853 -1.11932,-0.50781 -1.78369,-0.50781 -0.3978,0 -0.72153,0.0868 -0.97119,0.26025 -0.2497,0.1735 -0.37451,0.40201 -0.37451,0.68555 0,0.2793 0.0899,0.49722 0.26977,0.65381 0.17984,0.15659 0.57868,0.35757 1.19653,0.60303 0.78287,0.29199 1.31183,0.59457 1.58692,0.90771 0.27505,0.31314 0.4126,0.70035 0.4126,1.16162 0,0.64322 -0.26343,1.15 -0.79029,1.52027 -0.52685,0.37027 -1.20923,0.55542 -2.04712,0.55542 -0.72787,0 -1.36264,-0.13755 -1.90429,-0.4126 z m 12.38427,1.51709 h -1.25048 v -1.1045 h -0.0254 c -0.46973,0.84635 -1.19126,1.26954 -2.16456,1.26954 -1.66308,0 -2.49462,-0.99448 -2.49462,-2.9834 v -4.20215 h 1.23144 v 4.01807 c 0,1.42611 0.5459,2.13916 1.6377,2.13916 0.54165,0 0.97964,-0.19996 1.31396,-0.59986 0.33429,-0.3999 0.50144,-0.90454 0.50147,-1.51391 v -4.04346 h 1.25048 z m 2.62159,-6.53174 c 0.69824,-0.43588 1.50439,-0.65381 2.41845,-0.65381 1.69269,0 2.53907,0.88867 2.53907,2.66602 v 4.51953 h -1.23145 v -1.08545 h -0.0317 c -0.48666,0.83365 -1.20395,1.25049 -2.15185,1.25049 -0.68134,0 -1.223,-0.18409 -1.625,-0.55225 -0.40204,-0.36816 -0.60303,-0.86539 -0.60303,-1.4917 0,-1.31186 0.77652,-2.07568 2.32959,-2.2915 l 2.08203,-0.292 c 0,-1.14682 -0.47397,-1.72021 -1.42187,-1.72021 -0.84214,0 -1.6102,0.28354 -2.3042,0.85059 z m 2.08203,3.23096 c -0.57553,0.0762 -0.97226,0.22006 -1.19019,0.43164 -0.21795,0.21157 -0.3269,0.50781 -0.3269,0.88867 0,0.33432 0.11847,0.60727 0.35547,0.81885 0.23697,0.21157 0.55011,0.31738 0.93945,0.31738 0.54166,0 0.9881,-0.19043 1.33935,-0.57129 0.35123,-0.38086 0.52686,-0.85904 0.52686,-1.43457 v -0.67285 z m 5.14795,3.30078 v -10.39112 h 1.24414 v 10.39112 z m 3.41504,-9.4961 c 0,-0.22006 0.0751,-0.40518 0.22534,-0.55542 0.15021,-0.15023 0.33536,-0.22534 0.55542,-0.22534 0.22427,0 0.41363,0.0741 0.56811,0.22217 0.15445,0.1481 0.23169,0.33432 0.23169,0.55859 0,0.22007 -0.0772,0.40308 -0.23169,0.54908 -0.15448,0.14599 -0.34384,0.21899 -0.56811,0.21899 -0.22431,0 -0.41049,-0.073 -0.5586,-0.21899 -0.14813,-0.146 -0.22216,-0.32901 -0.22216,-0.54908 z m 0.14599,9.4961 v -7.02051 h 1.24414 v 7.02051 z m 3.17383,-1.51709 c 0.62628,0.45279 1.30127,0.6792 2.0249,0.6792 0.96906,0 1.45362,-0.31739 1.45362,-0.95215 0,-0.27085 -0.10581,-0.49405 -0.31739,-0.66968 -0.21161,-0.17563 -0.64114,-0.38403 -1.28857,-0.62524 -0.77866,-0.31314 -1.28436,-0.62314 -1.51709,-0.92994 -0.23276,-0.30679 -0.34915,-0.67813 -0.34912,-1.11401 -3e-5,-0.62207 0.26343,-1.12036 0.79028,-1.49487 0.52686,-0.37451 1.17535,-0.56177 1.94556,-0.56177 0.59668,0 1.15103,0.10367 1.66308,0.31104 v 1.1997 c -0.52475,-0.33853 -1.11932,-0.50781 -1.78369,-0.50781 -0.39779,0 -0.72153,0.0868 -0.97119,0.26025 -0.24969,0.1735 -0.37451,0.40201 -0.37451,0.68555 0,0.2793 0.0899,0.49722 0.26977,0.65381 0.17984,0.15659 0.57868,0.35757 1.19654,0.60303 0.78286,0.29199 1.31183,0.59457 1.58691,0.90771 0.27506,0.31314 0.4126,0.70035 0.4126,1.16162 0,0.64322 -0.26343,1.15 -0.79028,1.52027 -0.52686,0.37027 -1.20923,0.55542 -2.04712,0.55542 -0.72788,0 -1.36264,-0.13755 -1.9043,-0.4126 z m 6.75391,-5.01465 c 0.69824,-0.43588 1.50439,-0.65381 2.41845,-0.65381 1.69269,0 2.53907,0.88867 2.53907,2.66602 v 4.51953 h -1.23145 v -1.08545 h -0.0317 c -0.48666,0.83365 -1.20395,1.25049 -2.15185,1.25049 -0.68134,0 -1.223,-0.18409 -1.625,-0.55225 -0.40204,-0.36816 -0.60303,-0.86539 -0.60303,-1.4917 0,-1.31186 0.77652,-2.07568 2.32959,-2.2915 l 2.08203,-0.292 c 0,-1.14682 -0.47397,-1.72021 -1.42187,-1.72021 -0.84214,0 -1.6102,0.28354 -2.3042,0.85059 z m 2.08203,3.23096 c -0.57553,0.0762 -0.97226,0.22006 -1.19019,0.43164 -0.21795,0.21157 -0.3269,0.50781 -0.3269,0.88867 0,0.33432 0.11847,0.60727 0.35547,0.81885 0.23697,0.21157 0.55011,0.31738 0.93945,0.31738 0.54166,0 0.9881,-0.19043 1.33935,-0.57129 0.35123,-0.38086 0.52686,-0.85904 0.52686,-1.43457 v -0.67285 z m 8.5249,3.23095 c -0.27084,0.1481 -0.6369,0.22217 -1.09814,0.22217 -1.25684,0 -1.88526,-0.69614 -1.88526,-2.08838 v -4.05615 h -1.20605 v -1.02832 h 1.20605 v -1.68848 l 1.23779,-0.39355 v 2.08203 h 1.74561 v 1.02832 h -1.74561 v 3.83398 c 0,0.46128 0.0783,0.79136 0.23487,0.99024 0.15655,0.19888 0.41681,0.29834 0.78076,0.29834 0.2793,0 0.52261,-0.0783 0.72998,-0.23487 z m 1.46631,-9.42627 c 0,-0.22006 0.0751,-0.40518 0.22534,-0.55542 0.15021,-0.15023 0.33536,-0.22534 0.55542,-0.22534 0.22427,0 0.41364,0.0741 0.56812,0.22217 0.15444,0.1481 0.23168,0.33432 0.23168,0.55859 0,0.22007 -0.0772,0.40308 -0.23168,0.54908 -0.15448,0.14599 -0.34385,0.21899 -0.56812,0.21899 -0.2243,0 -0.41049,-0.073 -0.55859,-0.21899 -0.14814,-0.146 -0.22217,-0.32901 -0.22217,-0.54908 z m 0.14599,9.4961 v -7.02051 h 1.24415 v 7.02051 z m 3.09766,-3.43408 c 0,-1.15952 0.32373,-2.07462 0.97119,-2.74537 0.64746,-0.67074 1.52555,-1.0061 2.63428,-1.0061 1.05368,0 1.87994,0.32266 2.47876,0.96802 0.59878,0.64535 0.89819,1.5372 0.89819,2.67553 0,1.10874 -0.31952,2.00376 -0.95849,2.68506 -0.63901,0.68131 -1.49594,1.02198 -2.5708,1.02198 -1.0495,0 -1.88739,-0.33008 -2.51368,-0.99024 -0.62631,-0.66015 -0.93945,-1.52978 -0.93945,-2.60888 z m 1.26953,-0.0381 c 0,0.80826 0.20416,1.44516 0.61255,1.91064 0.40836,0.46549 0.95743,0.69825 1.64722,0.69825 0.7109,0 1.25259,-0.22745 1.625,-0.68238 0.37237,-0.45492 0.55859,-1.10766 0.55859,-1.95825 0,-0.85483 -0.18622,-1.51074 -0.55859,-1.96777 -0.37241,-0.45703 -0.9141,-0.68555 -1.625,-0.68555 -0.69824,0 -1.24945,0.23911 -1.65357,0.71729 -0.40414,0.47818 -0.6062,1.13412 -0.6062,1.96777 z m 13.64746,3.47217 h -1.23779 v -3.99268 c -3e-5,-1.44302 -0.52689,-2.16455 -1.58057,-2.16455 -0.54589,0 -0.99447,0.20313 -1.3457,0.60938 -0.35126,0.40625 -0.52686,0.92041 -0.52686,1.54248 v 4.00537 h -1.24414 v -7.02051 h 1.24414 v 1.16162 h 0.0254 c 0.52896,-0.88443 1.29702,-1.32666 2.30419,-1.32666 0.77018,0 1.35627,0.24649 1.75831,0.7395 0.402,0.49301 0.60302,1.21134 0.60302,2.15503 z"
     style="fill:#000000;stroke:none"
     clip-path="url(#clip58)"
     id="path294"
     transform="translate(-236.5,-15)" />
  <clipPath
     id="clip59">
    <path
       d="M 529,273 H 703 V 399 H 529 Z m 6,83 c -2.76141,0 -5,2.23859 -5,5 v 31 c 0,2.76141 2.23859,5 5,5 h 65 c 2.76141,0 5,-2.23859 5,-5 v -31 c 0,-2.76141 -2.23859,-5 -5,-5 z"
       id="path296" />
  </clipPath>
  <path
     d="M 567.66833,343.00015 V 302 H 578"
     style="fill:none;stroke:#558ed5"
     clip-path="url(#clip59)"
     id="path299"
     transform="translate(-236.5,-15)" />
  <clipPath
     id="clip60">
    <path
       d="M 529,273 H 703 V 399 H 529 Z m 6,83 c -2.76141,0 -5,2.23859 -5,5 v 31 c 0,2.76141 2.23859,5 5,5 h 65 c 2.76141,0 5,-2.23859 5,-5 v -31 c 0,-2.76141 -2.23859,-5 -5,-5 z"
       id="path301" />
  </clipPath>
  <path
     d="M 567.66833,343.00015 V 334 H 578"
     style="fill:none;stroke:#558ed5"
     clip-path="url(#clip60)"
     id="path304"
     transform="translate(-236.5,-15)" />
  <clipPath
     id="clip61">
    <path
       d="M 528,272 H 704 V 400 H 528 Z"
       id="path306" />
  </clipPath>
  <path
     d="m 567.60303,356 0.0653,-12.99985"
     style="fill:none;stroke:#558ed5"
     clip-path="url(#clip61)"
     id="path309"
     transform="translate(-236.5,-15)" />
  <clipPath
     id="clip62">
    <path
       d="m 528,354 h 80 v 46 h -80 z"
       id="path311" />
  </clipPath>
  <path
     d="m 535,356 c -2.76141,0 -5,2.23859 -5,5 v 31 c 0,2.76141 2.23859,5 5,5 h 65 c 2.76141,0 5,-2.23859 5,-5 v -31 c 0,-2.76141 -2.23859,-5 -5,-5 z"
     style="fill:#dce6f2;stroke:none"
     clip-path="url(#clip62)"
     id="path314"
     transform="translate(-236.5,-15)" />
  <clipPath
     id="clip63">
    <path
       d="m 528,354 h 80 v 46 h -80 z"
       id="path316" />
  </clipPath>
  <path
     d="m 535,356 c -2.76141,0 -5,2.23859 -5,5 v 31 c 0,2.76141 2.23859,5 5,5 h 65 c 2.76141,0 5,-2.23859 5,-5 v -31 c 0,-2.76141 -2.23859,-5 -5,-5 z"
     style="fill:none;stroke:#558ed5;stroke-width:2"
     clip-path="url(#clip63)"
     id="path319"
     transform="translate(-236.5,-15)" />
  <clipPath
     id="clip64">
    <path
       d="m 542,363 h 52 v 28 h -52 z"
       id="path321" />
  </clipPath>
  <path
     d="m 545.33691,379.62305 c 0.81897,0.59213 1.70166,0.88818 2.64795,0.88818 1.26722,0 1.90088,-0.41504 1.90088,-1.24512 0,-0.35415 -0.13836,-0.64608 -0.41504,-0.87573 -0.27673,-0.22964 -0.83838,-0.5022 -1.68506,-0.81763 -1.01825,-0.40951 -1.67956,-0.81485 -1.98388,-1.21606 -0.30438,-0.40122 -0.45655,-0.88681 -0.45655,-1.45679 0,-0.81347 0.34449,-1.46509 1.03345,-1.95483 0.68897,-0.48975 1.53699,-0.73462 2.54419,-0.73462 0.78027,0 1.50519,0.13559 2.17481,0.40674 v 1.56885 c -0.68622,-0.44272 -1.46375,-0.66407 -2.33252,-0.66407 -0.52021,0 -0.94355,0.11344 -1.27002,0.34033 -0.32654,0.2269 -0.48975,0.52573 -0.48975,0.89649 0,0.36523 0.11755,0.65024 0.35278,0.85498 0.23517,0.20474 0.75672,0.46762 1.5647,0.78857 1.02374,0.38184 1.71546,0.7775 2.0752,1.18702 0.35968,0.40951 0.53955,0.91586 0.53955,1.51904 0,0.84115 -0.34448,1.50381 -1.03345,1.98804 -0.68896,0.48422 -1.5813,0.72631 -2.677,0.72631 -0.95184,0 -1.78192,-0.17984 -2.49024,-0.53955 z m 14.95801,1.56884 c -0.70282,0.42057 -1.5495,0.63086 -2.54004,0.63086 -1.32812,0 -2.39618,-0.42611 -3.2041,-1.27832 -0.80798,-0.8522 -1.21191,-1.9562 -1.21191,-3.31201 0,-1.50522 0.43579,-2.7185 1.30737,-3.63989 0.87158,-0.92139 2.03784,-1.38208 3.49878,-1.38208 0.84112,0 1.56055,0.14941 2.1582,0.44824 v 1.61035 c -0.64746,-0.47592 -1.36688,-0.71386 -2.1582,-0.71386 -0.92969,0 -1.68646,0.32235 -2.27026,0.96704 -0.58387,0.64468 -0.87574,1.50381 -0.87574,2.57739 0,1.05698 0.27527,1.88428 0.82593,2.48193 0.5506,0.59766 1.29352,0.89649 2.22876,0.89649 0.79132,0 1.53839,-0.2601 2.24121,-0.78028 z m 7.36279,-7.15527 c -0.27117,-0.19369 -0.64471,-0.29053 -1.1206,-0.29053 -0.63086,0 -1.15106,0.29468 -1.56055,0.88404 -0.40954,0.58935 -0.61426,1.36548 -0.61426,2.32837 v 4.64843 h -1.62695 v -9.18066 h 1.62695 v 1.86768 h 0.0332 c 0.46484,-1.35025 1.26721,-2.0254 2.40722,-2.0254 0.37073,0 0.65577,0.0415 0.85498,0.12452 z m 1.56055,-4.84766 c 0,-0.28775 0.0982,-0.52987 0.29468,-0.72631 0.19641,-0.19645 0.43854,-0.29468 0.72632,-0.29468 0.29327,0 0.54089,0.0968 0.74292,0.29053 0.20196,0.19369 0.30298,0.43716 0.30298,0.73046 0,0.28776 -0.10102,0.5271 -0.30298,0.71802 -0.20203,0.19092 -0.44965,0.28638 -0.74292,0.28638 -0.29334,0 -0.53681,-0.0955 -0.73047,-0.28638 -0.19373,-0.19092 -0.29053,-0.43026 -0.29053,-0.71802 z m 0.19092,12.41797 v -9.18066 h 1.62695 v 9.18066 z m 6.29199,-1.29492 v 5.52002 h -1.62695 v -13.40576 h 1.62695 v 1.58545 h 0.0332 c 0.71937,-1.20084 1.77082,-1.80127 3.1543,-1.80127 1.17316,0 2.09314,0.41089 2.76001,1.23267 0.66681,0.82177 1.00025,1.9244 1.00025,3.30786 0,1.52734 -0.37769,2.75448 -1.13306,3.68139 -0.75537,0.92691 -1.77222,1.39038 -3.05054,1.39038 -1.17871,0 -2.08905,-0.50357 -2.73096,-1.51074 z m -0.008,-2.49023 c 0,0.74707 0.24072,1.37655 0.72217,1.88843 0.48144,0.51187 1.08459,0.76782 1.80957,0.76782 0.86328,0 1.53839,-0.33203 2.02539,-0.9961 0.48694,-0.66406 0.73047,-1.58267 0.73047,-2.75586 0,-0.99057 -0.22693,-1.76669 -0.68067,-2.32836 -0.45379,-0.56168 -1.0736,-0.84253 -1.85937,-0.84253 -0.80243,0 -1.46094,0.285 -1.97559,0.85498 -0.51464,0.56997 -0.77197,1.30044 -0.77197,2.1914 z m 13.97022,3.69384 c -0.35419,0.1937 -0.83289,0.29053 -1.43604,0.29053 -1.64355,0 -2.46533,-0.91031 -2.46533,-2.73095 v -5.3042 h -1.57715 v -1.34473 h 1.57715 v -2.20801 l 1.61865,-0.51465 v 2.72266 h 2.28272 v 1.34473 h -2.28272 v 5.01367 c 0,0.60318 0.10236,1.03482 0.30713,1.29492 0.20471,0.2601 0.54504,0.39014 1.021,0.39014 0.36523,0 0.68341,-0.10239 0.95459,-0.30713 z"
     style="fill:#17375e;stroke:none"
     clip-path="url(#clip64)"
     id="path324"
     transform="translate(-236.5,-15)" />
  <clipPath
     id="clip65">
    <path
       d="m 562,343 h 13 v 13 h -13 z"
       id="path326" />
  </clipPath>
  <path
     d="m 572.5,349 c 0,-2.48529 -2.01477,-4.5 -4.5,-4.5 -2.48529,0 -4.5,2.01471 -4.5,4.5 0,2.48529 2.01471,4.5 4.5,4.5 2.48523,0 4.5,-2.01474 4.5,-4.5 z"
     style="fill:#fafafa;stroke:none"
     clip-path="url(#clip65)"
     id="path329"
     transform="translate(-236.5,-15)" />
  <clipPath
     id="clip66">
    <path
       d="m 562,343 h 13 v 13 h -13 z"
       id="path331" />
  </clipPath>
  <path
     d="m 572.5,349 c 0,-2.48529 -2.01477,-4.5 -4.5,-4.5 -2.48529,0 -4.5,2.01471 -4.5,4.5 0,2.48529 2.01471,4.5 4.5,4.5 2.48523,0 4.5,-2.01474 4.5,-4.5 z"
     style="fill:none;stroke:#558ed5"
     clip-path="url(#clip66)"
     id="path334"
     transform="translate(-236.5,-15)" />
  <clipPath
     id="clip67">
    <path
       d="m 562,343 h 13 v 13 h -13 z"
       id="path336" />
  </clipPath>
  <path
     d="m 566,349 h 4"
     style="fill:none;stroke:#96a0c8"
     clip-path="url(#clip67)"
     id="path339"
     transform="translate(-236.5,-15)" />
  <clipPath
     id="clip68">
    <path
       d="m 575,272 h 58 v 33 h -58 z"
       id="path341" />
  </clipPath>
  <path
     d="m 578,302 h 51 z"
     style="fill:none;stroke:#558ed5;stroke-width:3"
     clip-path="url(#clip68)"
     id="path344"
     transform="translate(-236.5,-15)" />
  <clipPath
     id="clip69">
    <path
       d="m 587,277 h 34 v 23 h -34 z"
       id="path346" />
  </clipPath>
  <path
     d="m 593.98804,287.90015 c -0.2074,-0.14814 -0.49304,-0.22217 -0.85694,-0.22217 -0.48242,0 -0.88025,0.22534 -1.19336,0.67602 -0.31317,0.45069 -0.46972,1.04419 -0.46972,1.78052 v 3.55469 h -1.24414 v -7.02051 h 1.24414 v 1.42822 h 0.0254 c 0.35547,-1.03256 0.96905,-1.54882 1.84082,-1.54882 0.28351,0 0.50146,0.0317 0.65381,0.0952 z m 8.90576,-3.542 c -0.23279,-0.12274 -0.48456,-0.18408 -0.75537,-0.18408 -0.77869,0 -1.16797,0.48242 -1.16797,1.44727 v 1.04736 h 1.64404 v 1.02832 h -1.64404 v 5.99219 h -1.23145 v -5.99219 h -1.1997 v -1.02832 h 1.1997 v -1.10449 c 0,-0.75327 0.21686,-1.34467 0.65064,-1.77417 0.43371,-0.42954 0.98492,-0.64429 1.65356,-0.64429 0.35547,0 0.63898,0.0402 0.85059,0.12061 z m 0.88867,-0.16503 c 0,-0.22007 0.0751,-0.40522 0.22534,-0.55542 0.15021,-0.15024 0.33533,-0.22535 0.55542,-0.22535 0.22425,0 0.41364,0.074 0.56812,0.22217 0.15442,0.1481 0.23169,0.33429 0.23169,0.5586 0,0.22003 -0.0773,0.40307 -0.23169,0.54907 -0.15448,0.14599 -0.34387,0.21899 -0.56812,0.21899 -0.2243,0 -0.41052,-0.073 -0.55859,-0.21899 -0.14813,-0.146 -0.22217,-0.32904 -0.22217,-0.54907 z m 0.146,9.49609 v -7.02051 h 1.24414 v 7.02051 z m 3.56103,0 V 283.2981 h 1.24414 v 10.39111 z m 9.28662,-3.19287 h -4.91308 c 0.0211,0.74902 0.22638,1.3277 0.61572,1.73608 0.38928,0.40836 0.93311,0.61255 1.63135,0.61255 0.78711,0 1.5086,-0.2518 2.16455,-0.75537 v 1.11084 c -0.61786,0.43585 -1.43671,0.65381 -2.45654,0.65381 -1.01563,0 -1.80805,-0.32163 -2.3772,-0.96485 -0.56922,-0.64325 -0.85376,-1.53613 -0.85376,-2.67871 0,-1.07489 0.31207,-1.96142 0.93628,-2.65966 0.62414,-0.69825 1.39966,-1.04737 2.32641,-1.04737 0.91828,0 1.63556,0.29517 2.15186,0.8855 0.51623,0.59033 0.77441,1.41657 0.77441,2.47876 z m -1.24414,-0.99658 c -0.004,-0.63477 -0.15448,-1.12568 -0.45068,-1.47266 -0.29627,-0.34702 -0.71307,-0.52051 -1.25049,-0.52051 -0.49512,0 -0.92358,0.18408 -1.2854,0.55225 -0.36182,0.36816 -0.58929,0.84845 -0.68237,1.44092 z"
     style="fill:#000000;stroke:none"
     clip-path="url(#clip69)"
     id="path349"
     transform="translate(-236.5,-15)" />
  <clipPath
     id="clip70">
    <path
       d="m 575,304 h 129 v 33 H 575 Z"
       id="path351" />
  </clipPath>
  <path
     d="M 578,334 H 700 Z"
     style="fill:none;stroke:#558ed5;stroke-width:3"
     clip-path="url(#clip70)"
     id="path354"
     transform="translate(-236.5,-15)" />
  <clipPath
     id="clip71">
    <path
       d="m 587,309 h 105 v 23 H 587 Z"
       id="path356" />
  </clipPath>
  <path
     d="m 593.38257,319.90015 c -0.20734,-0.14811 -0.49298,-0.22217 -0.85694,-0.22217 -0.48242,0 -0.88018,0.22534 -1.19335,0.67602 -0.31311,0.45069 -0.46973,1.04419 -0.46973,1.78052 v 3.55469 h -1.24414 v -7.02051 h 1.24414 v 1.42822 h 0.0254 c 0.35547,-1.03256 0.96912,-1.54882 1.84082,-1.54882 0.28357,0 0.50146,0.0317 0.65381,0.0952 z m 15.41211,5.78906 h -1.24414 v -4.03076 c 0,-0.76172 -0.11847,-1.30655 -0.35547,-1.63452 -0.23694,-0.32798 -0.62628,-0.49195 -1.16797,-0.49195 -0.45703,0 -0.84845,0.21372 -1.17432,0.64112 -0.3258,0.42739 -0.48877,0.9331 -0.48877,1.51709 v 3.99902 h -1.24414 v -4.15772 c 0,-1.333 -0.51416,-1.99951 -1.54248,-1.99951 -0.47394,0 -0.86645,0.20313 -1.17749,0.60938 -0.31103,0.40625 -0.46655,0.92465 -0.46655,1.55517 v 3.99268 h -1.24414 v -7.02051 h 1.24414 v 1.11084 h 0.0254 c 0.49939,-0.85058 1.22937,-1.27588 2.18994,-1.27588 0.46973,0 0.88446,0.12906 1.24414,0.38721 0.35974,0.25815 0.60938,0.60727 0.74903,1.04736 0.5205,-0.95639 1.29919,-1.43457 2.33593,-1.43457 1.54462,0 2.3169,0.95215 2.3169,2.85645 z m 2.60888,-6.53174 c 0.69825,-0.43588 1.5044,-0.65381 2.41846,-0.65381 1.69269,0 2.53906,0.88867 2.53906,2.66602 v 4.51953 h -1.23144 v -1.08545 h -0.0317 c -0.48663,0.83365 -1.20392,1.25049 -2.15186,1.25049 -0.68127,0 -1.22296,-0.18408 -1.625,-0.55225 -0.40197,-0.36816 -0.60302,-0.86538 -0.60302,-1.4917 0,-1.31186 0.77655,-2.07568 2.32959,-2.2915 l 2.08203,-0.29199 c 0,-1.14682 -0.47394,-1.72022 -1.42188,-1.72022 -0.8421,0 -1.61016,0.28354 -2.3042,0.85059 z m 2.08204,3.23096 c -0.5755,0.0762 -0.97223,0.22006 -1.19019,0.43164 -0.2179,0.21158 -0.3269,0.50781 -0.3269,0.88867 0,0.33432 0.11853,0.60727 0.35546,0.81885 0.237,0.21158 0.55018,0.31738 0.93946,0.31738 0.54168,0 0.9881,-0.19043 1.33935,-0.57129 0.35126,-0.38086 0.52686,-0.85904 0.52686,-1.43457 v -0.67285 z m 8.91845,-2.48828 c -0.20739,-0.14811 -0.49304,-0.22217 -0.85693,-0.22217 -0.48242,0 -0.88025,0.22534 -1.19336,0.67602 -0.31317,0.45069 -0.46973,1.04419 -0.46973,1.78052 v 3.55469 h -1.24414 v -7.02051 h 1.24414 v 1.42822 h 0.0254 c 0.35541,-1.03256 0.96906,-1.54882 1.84082,-1.54882 0.28351,0 0.50147,0.0317 0.65381,0.0952 z m 7.3125,5.78906 h -1.69482 l -3.00244,-3.3833 h -0.0254 v 3.3833 h -1.24414 V 315.2981 h 1.24414 v 6.58886 h 0.0254 l 2.85009,-3.21826 h 1.59961 l -3.17382,3.37695 z m 7.41407,0 h -1.24415 v -1.16797 h -0.0254 c -0.51208,0.88867 -1.30761,1.33301 -2.38671,1.33301 -0.88868,0 -1.5954,-0.31632 -2.12012,-0.94898 -0.52478,-0.63266 -0.78711,-1.48642 -0.78711,-2.56128 0,-1.15951 0.2962,-2.08944 0.88867,-2.78979 0.59241,-0.70035 1.36682,-1.05054 2.32324,-1.05054 0.95636,0 1.65039,0.37241 2.08203,1.11719 h 0.0254 v -4.32275 h 1.24415 z m -1.2378,-4.17676 c 0,-0.56283 -0.18518,-1.0336 -0.55542,-1.41235 -0.3703,-0.37876 -0.82629,-0.56812 -1.36792,-0.56812 -0.66015,0 -1.18066,0.24649 -1.56152,0.7395 -0.38086,0.49302 -0.57129,1.1648 -0.57129,2.01539 0,0.78286 0.18298,1.40176 0.54907,1.85668 0.36603,0.45493 0.85376,0.68238 1.46314,0.68238 0.60089,0 1.09179,-0.22324 1.47265,-0.66968 0.38086,-0.44644 0.57129,-1.00186 0.57129,-1.66626 z m 3.23731,0.74268 c 0,-1.15952 0.32373,-2.07462 0.97119,-2.74536 0.64746,-0.67075 1.52551,-1.00611 2.63428,-1.00611 1.05365,0 1.87994,0.32266 2.47876,0.96802 0.59875,0.64535 0.89819,1.5372 0.89819,2.67554 0,1.10873 -0.31952,2.00375 -0.9585,2.68506 -0.63904,0.6813 -1.49597,1.02197 -2.5708,1.02197 -1.0495,0 -1.88739,-0.33008 -2.51367,-0.99024 -0.62634,-0.66015 -0.93945,-1.52978 -0.93945,-2.60888 z m 1.26953,-0.0381 c 0,0.80826 0.20416,1.44516 0.61255,1.91065 0.40832,0.46548 0.95739,0.69824 1.64721,0.69824 0.71088,0 1.25257,-0.22745 1.625,-0.68238 0.37238,-0.45492 0.5586,-1.10766 0.5586,-1.95825 0,-0.85483 -0.18622,-1.51074 -0.5586,-1.96777 -0.37243,-0.45703 -0.91412,-0.68555 -1.625,-0.68555 -0.69824,0 -1.24945,0.23911 -1.65356,0.71729 -0.40418,0.47818 -0.6062,1.13412 -0.6062,1.96777 z m 16.70703,-3.54834 -2.09473,7.02051 h -1.29492 l -1.39648,-4.92578 c -0.0593,-0.21158 -0.0974,-0.43588 -0.11426,-0.67285 h -0.0254 c -0.0128,0.17773 -0.0614,0.39779 -0.146,0.66015 l -1.51074,4.93848 h -1.25684 l -2.10742,-7.02051 h 1.29492 l 1.40284,5.20508 c 0.0423,0.15659 0.074,0.37027 0.0952,0.64111 h 0.0508 c 0.0169,-0.23276 0.0571,-0.45279 0.12061,-0.66015 l 1.51074,-5.18604 h 1.14893 l 1.47265,5.21143 c 0.0423,0.15234 0.0762,0.36816 0.10156,0.64746 h 0.0571 c 0.008,-0.18619 0.0465,-0.40201 0.11426,-0.64746 l 1.37109,-5.21143 z m 7.51562,7.02051 h -1.23779 v -3.99268 c -6e-5,-1.44302 -0.52691,-2.16455 -1.58056,-2.16455 -0.5459,0 -0.99451,0.20313 -1.34571,0.60938 -0.35126,0.40625 -0.52685,0.92041 -0.52685,1.54248 v 4.00537 h -1.24414 v -7.02051 h 1.24414 v 1.16162 h 0.0254 c 0.52893,-0.88443 1.29699,-1.32666 2.3042,-1.32666 0.77014,0 1.35626,0.24649 1.7583,0.7395 0.40197,0.49302 0.60302,1.21134 0.60302,2.15503 z m 9.87696,-9.33106 c -0.23279,-0.12271 -0.48456,-0.18408 -0.75537,-0.18408 -0.77869,0 -1.16797,0.48242 -1.16797,1.44727 v 1.04736 h 1.64404 v 1.02832 h -1.64404 v 5.99219 h -1.23145 v -5.99219 h -1.1997 v -1.02832 h 1.1997 v -1.10449 c 0,-0.75327 0.21686,-1.34464 0.65064,-1.77417 0.43371,-0.42954 0.98492,-0.64429 1.65356,-0.64429 0.35547,0 0.63898,0.0402 0.85059,0.12061 z m 0.88867,-0.16503 c 0,-0.22007 0.0751,-0.40519 0.22534,-0.55542 0.15021,-0.15024 0.33533,-0.22535 0.55542,-0.22535 0.22424,0 0.41364,0.0741 0.56812,0.22217 0.15442,0.1481 0.23169,0.33432 0.23169,0.5586 0,0.22006 -0.0773,0.40307 -0.23169,0.54907 -0.15448,0.14599 -0.34388,0.21899 -0.56812,0.21899 -0.2243,0 -0.41052,-0.073 -0.55859,-0.21899 -0.14813,-0.146 -0.22217,-0.32901 -0.22217,-0.54907 z m 0.146,9.49609 v -7.02051 h 1.24414 v 7.02051 z m 3.56103,0 v -10.3911 h 1.24414 v 10.39111 z m 9.28662,-3.19287 h -4.91308 c 0.0211,0.74902 0.22638,1.32773 0.61572,1.73608 0.38928,0.40836 0.9331,0.61255 1.63135,0.61255 0.78711,0 1.5086,-0.2518 2.16455,-0.75537 v 1.11084 c -0.61786,0.43588 -1.43671,0.65381 -2.45655,0.65381 -1.01562,0 -1.80804,-0.32163 -2.37719,-0.96485 -0.56922,-0.64321 -0.85376,-1.53613 -0.85376,-2.67871 0,-1.07486 0.31207,-1.96142 0.93628,-2.65966 0.62414,-0.69825 1.39959,-1.04737 2.32641,-1.04737 0.91828,0 1.63556,0.29517 2.15186,0.8855 0.51623,0.59033 0.77441,1.4166 0.77441,2.47876 z m -1.24414,-0.99658 c -0.004,-0.63477 -0.15448,-1.12564 -0.45068,-1.47266 -0.29627,-0.34702 -0.71308,-0.52051 -1.25049,-0.52051 -0.49512,0 -0.92365,0.18408 -1.2854,0.55225 -0.36182,0.36816 -0.5893,0.84848 -0.68237,1.44092 z"
     style="fill:#000000;stroke:none"
     clip-path="url(#clip71)"
     id="path359"
     transform="translate(-236.5,-15)" />
  <clipPath
     id="clip72">
    <path
       d="M 233,44 H 709 V 82 H 233 Z"
       id="path361" />
  </clipPath>
  <path
     d="M 239,76 V 63 H 703 V 76 M 471,63 V 50"
     style="fill:none;stroke:#c3d69b;stroke-width:5"
     clip-path="url(#clip72)"
     id="path364"
     transform="translate(-236.5,-15)" />
  <clipPath
     id="clip73">
    <path
       d="m 435,14 h 73 v 33 h -73 z"
       id="path366" />
  </clipPath>
  <path
     d="m 441,15 c -2.76141,0 -5,2.238586 -5,5 v 20 c 0,2.761414 2.23859,5 5,5 h 60 c 2.76141,0 5,-2.238586 5,-5 V 20 c 0,-2.761414 -2.23859,-5 -5,-5 z"
     style="fill:#77933c;stroke:none"
     clip-path="url(#clip73)"
     id="path369"
     transform="translate(-236.5,-15)" />
  <clipPath
     id="clip74">
    <path
       d="m 444,19 h 55 v 23 h -55 z"
       id="path371" />
  </clipPath>
  <path
     d="m 454.05444,35.613037 h -1.49804 l -0.70371,-2.729492 c -0.14038,-0.545899 -0.31256,-0.917236 -0.51651,-1.114014 -0.20395,-0.196777 -0.49423,-0.295166 -0.87085,-0.295166 h -0.91406 l -1.40649,4.138672 h -1.26954 l 3.34153,-9.832519 h 2.99609 c 0.95639,0 1.62701,0.230621 2.01193,0.691894 0.38489,0.461243 0.4364,1.106598 0.15451,1.936035 -0.46304,1.36261 -1.49145,2.247071 -3.08526,2.653321 l -0.0108,0.03174 c 0.23203,0.114258 0.41047,0.27716 0.53534,0.488769 0.12488,0.211579 0.25687,0.573395 0.396,1.08545 z m -2.94561,-8.72168 -1.18009,3.472168 h 1.49805 c 0.57977,0 1.10806,-0.169281 1.58493,-0.507812 0.47687,-0.338562 0.80881,-0.782898 0.99579,-1.333008 0.17404,-0.512054 0.14493,-0.911957 -0.0874,-1.199707 -0.23227,-0.287781 -0.6637,-0.431641 -1.29422,-0.431641 z m 4.47042,7.20459 c 0.47245,0.45279 1.07047,0.679199 1.7941,0.679199 0.96909,0 1.56149,-0.317382 1.77725,-0.952148 0.0921,-0.270844 0.0621,-0.49408 -0.0898,-0.669678 -0.15192,-0.175628 -0.51059,-0.384033 -1.07608,-0.625244 -0.67224,-0.313171 -1.0726,-0.623138 -1.20108,-0.929932 -0.12848,-0.306823 -0.11865,-0.678161 0.0294,-1.114013 0.2114,-0.622071 0.64416,-1.120362 1.29831,-1.494873 0.65411,-0.374512 1.36627,-0.561768 2.13647,-0.561768 0.59668,0 1.11579,0.103668 1.55735,0.311035 l -0.40763,1.199707 c -0.4097,-0.338562 -0.94674,-0.507812 -1.61111,-0.507812 -0.3978,0 -0.75101,0.08673 -1.05966,0.260254 -0.30866,0.173492 -0.51117,0.402008 -0.60749,0.685547 -0.095,0.279297 -0.0791,0.497223 0.0476,0.653808 0.12665,0.156555 0.45718,0.357575 0.99158,0.603028 0.68368,0.291992 1.10986,0.594543 1.2785,0.907714 0.16864,0.313141 0.17456,0.700348 0.0178,1.161622 -0.21859,0.643219 -0.65423,1.149963 -1.30697,1.520263 -0.65271,0.37027 -1.39801,0.55542 -2.2359,0.55542 -0.72788,0 -1.31589,-0.137543 -1.76404,-0.412597 z m 9.46762,1.447266 c -0.32113,0.148102 -0.71234,0.222168 -1.17361,0.222168 -1.25684,0 -1.64868,-0.696137 -1.17551,-2.088379 l 1.37845,-4.056152 h -1.20605 l 0.34952,-1.028321 h 1.20605 l 0.57376,-1.688476 1.37158,-0.393555 -0.70755,2.082031 h 1.74561 l -0.34952,1.028321 h -1.7456 l -1.30298,3.833984 c -0.15677,0.461243 -0.19065,0.791321 -0.10166,0.990234 0.089,0.198883 0.31546,0.29834 0.67942,0.29834 0.27929,0 0.54922,-0.07831 0.80981,-0.234863 z m 7.39039,0.06982 h -1.25049 l 0.37539,-1.104492 h -0.0254 c -0.75741,0.846344 -1.6228,1.269531 -2.5961,1.269531 -1.66308,0 -2.15664,-0.994476 -1.48068,-2.983398 l 1.42813,-4.202149 h 1.23145 l -1.36554,4.018067 c -0.48468,1.426086 -0.18112,2.13916 0.91067,2.13916 0.54166,0 1.04761,-0.199951 1.51783,-0.599854 0.47024,-0.399902 0.80889,-0.904541 1.01599,-1.513916 l 1.37417,-4.043457 h 1.25049 z m 8.55029,0 h -1.24414 l 0.39691,-1.167969 h -0.0254 c -0.81409,0.888642 -1.76068,1.333008 -2.83978,1.333008 -0.88868,0 -1.48786,-0.316345 -1.79758,-0.948974 -0.30972,-0.63266 -0.28195,-1.48642 0.0833,-2.56128 0.39408,-1.159515 1.00635,-2.089447 1.83679,-2.789795 0.83048,-0.700378 1.72388,-1.050537 2.68027,-1.050537 0.95636,0 1.52384,0.372376 1.70236,1.117188 h 0.0254 l 1.46909,-4.322754 h 1.24414 z m 0.1817,-4.176758 c 0.19122,-0.562835 0.16605,-1.03363 -0.0755,-1.412353 -0.24155,-0.378754 -0.63315,-0.568116 -1.1748,-0.568116 -0.66016,0 -1.26444,0.246491 -1.81284,0.739502 -0.54843,0.492981 -0.96716,1.164795 -1.25626,2.015381 -0.26608,0.782868 -0.29339,1.401764 -0.0819,1.85669 0.21143,0.454895 0.62186,0.682373 1.23124,0.682373 0.60092,0 1.16766,-0.223236 1.70022,-0.669678 0.53259,-0.446472 0.91178,-1.001892 1.13758,-1.66626 z m 5.36237,-5.319336 c 0.0748,-0.220062 0.2128,-0.405212 0.41409,-0.55542 0.20126,-0.150238 0.41193,-0.225341 0.63199,-0.225341 0.22427,0 0.38849,0.07403 0.49264,0.222168 0.10413,0.148101 0.11808,0.334289 0.0418,0.558593 -0.0748,0.220032 -0.2142,0.403076 -0.4183,0.549073 -0.20407,0.145996 -0.41828,0.218994 -0.64255,0.218994 -0.22427,0 -0.38568,-0.073 -0.48416,-0.218994 -0.0985,-0.145997 -0.11032,-0.329041 -0.0356,-0.549073 z m -3.08118,9.496094 2.38592,-7.020508 h 1.24415 l -2.38593,7.020508 z m 4.26471,-3.434082 c 0.39401,-1.159515 1.02875,-2.074646 1.90414,-2.745361 0.87543,-0.670746 1.8675,-1.006104 2.97623,-1.006104 1.05371,0 1.77029,0.322663 2.14978,0.968018 0.37946,0.645324 0.37579,1.53717 -0.011,2.675537 -0.37683,1.108704 -1.00052,2.003723 -1.87106,2.685059 -0.87057,0.681304 -1.84329,1.021972 -2.91815,1.021972 -1.04947,0 -1.77518,-0.330109 -2.1771,-0.990234 -0.40191,-0.660157 -0.41952,-1.529785 -0.0528,-2.608887 z m 1.28244,-0.03809 c -0.27469,0.808258 -0.28693,1.44513 -0.0367,1.910645 0.25015,0.465484 0.72012,0.698242 1.40991,0.698242 0.71094,0 1.32989,-0.227478 1.8569,-0.682373 0.52698,-0.454926 0.935,-1.107666 1.22409,-1.958252 0.29053,-0.854828 0.32727,-1.510742 0.1102,-1.967774 -0.21707,-0.457031 -0.68109,-0.685547 -1.39203,-0.685547 -0.69824,0 -1.33069,0.239075 -1.89734,0.717286 -0.56668,0.47818 -0.99167,1.134094 -1.27499,1.967773 z"
     style="fill:#ffffff;stroke:none"
     clip-path="url(#clip74)"
     id="path374"
     transform="translate(-236.5,-15)" />
</svg>
